<?xml version="1.0" encoding="utf-8"?>
<!-- Generator: Adobe Illustrator 16.0.0, SVG Export Plug-In . SVG Version: 6.00 Build 0)  -->
<!DOCTYPE svg PUBLIC "-//W3C//DTD SVG 1.1//EN" "http://www.w3.org/Graphics/SVG/1.1/DTD/svg11.dtd">
<svg version="1.1" id="Layer_1" xmlns="http://www.w3.org/2000/svg" xmlns:xlink="http://www.w3.org/1999/xlink" x="0px" y="0px"
	 width="453.5px" height="92.1px" viewBox="0 0 453.5 92.1" enable-background="new 0 0 453.5 92.1" xml:space="preserve">
<g>
	<path d="M43.5,67.8c0.2-0.6,0.4-1.1,0.7-1.6c0.3-0.5,0.7-0.9,1.1-1.2c0.4-0.3,0.9-0.6,1.4-0.8c0.5-0.2,1.1-0.3,1.7-0.3
		c2.6,0,4.2,1.3,4.9,3.9H43.5z M58.3,70.6c0-3.5-0.9-6.2-2.7-8.1c-1.8-2-4.2-3-7.3-3c-3.1,0-5.5,1-7.4,3c-1.8,2.1-2.8,4.7-2.8,8.1
		c0,3.4,0.9,6,2.8,8.1c1.9,2,4.4,3,7.6,3c1.1,0,2.1-0.1,3-0.3c0.9-0.2,1.8-0.6,2.6-1.1c0.8-0.5,1.6-1.1,2.3-1.9
		c0.7-0.8,1.4-1.7,2-2.8l-4.1-2.3c-1,1.6-1.9,2.6-2.7,3.2c-0.8,0.6-1.8,0.9-3,0.9c-1.6,0-2.8-0.5-3.8-1.5c-1-1-1.6-2.4-1.7-4.1h15.1
		L58.3,70.6z M14.9,81.1h4.9V70.9c0-2.6,0.3-4.4,1-5.5c0.7-1,1.9-1.6,3.6-1.6c1.3,0,2.3,0.4,2.9,1.1c0.6,0.8,0.9,2,0.9,3.7v12.4H33
		V68.2c0-2.9-0.6-5.1-1.8-6.4c-1.4-1.5-3.3-2.3-5.7-2.3c-2.1,0-4,0.8-5.7,2.3V44.6h-4.9V81.1z M10.7,64.6v-4.5H6.9v-7.7H2.1v7.7H0
		v4.5h2.1v16.5h4.9V64.6H10.7z"/>
	<path d="M138.3,59l-8.5,6.7l3.3-15.6l-6.5,0.9l-6.4,30h6.4l2.3-10.9c0.6-0.5,1.2-0.9,1.7-1.2c0.5-0.3,1-0.4,1.5-0.4
		c0.6,0,1,0.2,1.2,0.6c0.2,0.4,0.4,0.9,0.4,1.5c0,0.2,0,0.5,0,0.8c0,0.3-0.1,0.6-0.1,0.9l-0.4,1.7c-0.2,0.9-0.3,1.6-0.3,2.3
		c0,1.6,0.5,2.9,1.4,3.7c0.9,0.9,2.3,1.3,4.2,1.3c0.3,0,0.7-0.1,1.1-0.3c0.4-0.2,0.9-0.5,1.3-0.8c0.4-0.4,0.8-0.9,1.1-1.4
		c0.3-0.6,0.5-1.2,0.6-2c-0.1,0.1-0.3,0.1-0.5,0.2c-0.2,0.1-0.5,0.1-1.1,0.1c-0.7,0-1.1-0.2-1.4-0.5c-0.2-0.3-0.4-0.7-0.4-1.1
		c0-0.2,0-0.5,0.1-0.7c0-0.2,0.1-0.5,0.2-0.7l0.5-2.2c0.1-0.3,0.1-0.6,0.1-0.9s0-0.6,0-0.8c0-1.4-0.4-2.6-1.2-3.6
		c-0.8-1-2-1.5-3.7-1.5c-0.2,0-0.5,0-0.7,0c-0.3,0-0.5,0.1-0.7,0.1l8.8-6.1H138.3z M117.8,66.2c0.3,0.1,0.6,0.1,0.9,0.1
		c0.6,0,1.2-0.3,1.7-1c0.5-0.7,0.7-1.6,0.7-2.7c0-0.5-0.1-0.9-0.2-1.4c-0.1-0.5-0.4-0.9-0.8-1.3c-0.4-0.4-0.9-0.7-1.5-0.9
		c-0.6-0.2-1.4-0.3-2.4-0.3c-1.5,0-2.8,0.3-4,0.8c-1.2,0.5-2.2,1.2-3.1,2.1s-1.6,1.9-2.2,3c-0.6,1.1-1.1,2.2-1.5,3.4
		s-0.7,2.3-0.8,3.4s-0.3,2.1-0.3,2.9c0,2.5,0.6,4.3,1.9,5.4c1.3,1.1,2.9,1.6,5,1.6c1.5,0,2.8-0.2,4-0.7c1.2-0.5,2.3-1.1,3.3-1.9
		c1-0.8,1.9-1.6,2.7-2.6c0.8-1,1.5-2,2.1-3h-1.5c-0.6,0.6-1.1,1.2-1.7,1.7s-1.1,1-1.8,1.4c-0.6,0.4-1.3,0.7-2,1
		c-0.7,0.2-1.5,0.4-2.4,0.4c-1.1,0-1.9-0.2-2.5-0.7c-0.6-0.5-0.9-1.5-0.9-3c0-1.2,0.2-2.5,0.5-4c0.3-1.5,0.8-2.8,1.3-4.1
		s1.1-2.4,1.9-3.3c0.7-0.9,1.4-1.3,2.2-1.3c0.8,0,1.2,0.5,1.2,1.6c0,0.4-0.1,0.9-0.2,1.4s-0.3,1.1-0.6,1.6
		C117.2,66,117.5,66.2,117.8,66.2z M64.4,85.2c0.3-0.5,0.6-0.9,1-1.2c0.4-0.4,0.9-0.7,1.5-1c0.6-0.3,1.2-0.5,1.9-0.8l-0.6,2.6
		c-0.3,1.3-0.7,2.2-1.1,2.7c-0.5,0.5-0.9,0.7-1.4,0.7c-0.5,0-0.9-0.2-1.3-0.5c-0.3-0.3-0.5-0.6-0.5-1C64,86.2,64.1,85.6,64.4,85.2z
		 M80.1,59l0.8-3.5c0.1-0.7,0.3-1.3,0.6-1.8c0.2-0.5,0.5-0.8,0.8-1.1s0.6-0.4,0.9-0.6c0.3-0.1,0.6-0.2,0.8-0.2
		c0.4,0,0.8,0.1,1.2,0.4c0.3,0.3,0.5,0.6,0.5,1.1c0,0.2,0,0.4,0,0.6c0,0.2,0,0.4-0.1,0.6h2.1c0.1-0.5,0.1-1.1,0.1-1.8
		c0-0.7-0.1-1.4-0.4-1.9c-0.3-0.6-0.7-1.1-1.2-1.5c-0.5-0.4-1-0.8-1.7-1c-0.6-0.2-1.3-0.3-1.9-0.3c-0.7,0-1.5,0.1-2.3,0.3
		s-1.6,0.6-2.3,1.1c-0.8,0.5-1.4,1.3-2,2.3c-0.6,1-1.1,2.3-1.4,3.8l-5.3,25.2c-1.1,0.3-2,0.7-3,1c-0.9,0.4-1.7,0.8-2.4,1.3
		c-0.7,0.5-1.2,1.1-1.6,1.8c-0.4,0.7-0.6,1.6-0.6,2.6c0,0.7,0.1,1.4,0.4,1.9c0.3,0.6,0.7,1.1,1.2,1.5c0.5,0.4,1,0.8,1.7,1
		s1.3,0.3,1.9,0.3c0.7,0,1.5-0.1,2.3-0.3c0.8-0.2,1.5-0.6,2.3-1.1c0.7-0.5,1.4-1.3,2-2.3s1-2.3,1.4-3.8l5.1-23.9h5.4l-2.6,12.4
		c-0.2,1.1-0.4,2.1-0.4,2.9c0,1.9,0.5,3.2,1.4,4c0.9,0.8,2,1.3,3.4,1.3c0.5,0,1-0.1,1.5-0.2s1.1-0.3,1.6-0.6
		c0.6-0.3,1.1-0.7,1.7-1.3c0.6-0.5,1.1-1.3,1.7-2.2c0.1,1.4,0.6,2.4,1.3,3.1c0.8,0.7,1.8,1.1,3,1.1c0.6,0,1.3-0.1,2-0.3
		c0.8-0.2,1.6-0.6,2.4-1.1c0.8-0.6,1.6-1.4,2.4-2.5c0.8-1.1,1.5-2.5,2.1-4.3h-1.9c-0.3,1.1-0.8,2-1.4,2.8c-0.6,0.7-1.3,1.1-2.2,1.1
		c-0.6,0-1.1-0.1-1.4-0.4c-0.3-0.2-0.4-0.7-0.4-1.3c0-0.4,0.1-0.9,0.2-1.4l3.2-15h-6.4l-3,14.2c-0.3,1.1-0.8,2-1.4,2.8
		c-0.6,0.7-1.3,1.1-2.2,1.1c-0.5,0-0.8-0.2-1-0.5c-0.2-0.4-0.3-0.8-0.3-1.3c0-0.4,0-0.8,0.1-1.2l3.2-15H80.1z"/>
	<path d="M291.3,47.1c-2.8,0-5.2,0.8-7.1,2.5c-1.9,1.7-2.9,3.8-2.9,6.3c0,3.7,2.3,6.5,6.8,8.5l3.2,1.3c0.8,0.4,1.6,0.7,2.2,1.1
		s1.1,0.8,1.5,1.3c0.4,0.5,0.7,0.9,0.8,1.5s0.3,1.1,0.3,1.8c0,1.6-0.5,2.9-1.6,4c-1,1-2.3,1.6-3.9,1.6c-2,0-3.5-0.7-4.5-2.2
		c-0.6-0.7-1-2.1-1.2-4.1l-5.1,1.1c0.5,3.1,1.6,5.5,3.5,7.2c1.9,1.7,4.3,2.6,7.2,2.6c3,0,5.6-1,7.7-3c2-2,3.1-4.5,3.1-7.6
		c0-2.3-0.6-4.2-1.9-5.8c-1.3-1.6-3.2-2.9-5.9-4l-3.3-1.4c-2.4-1-3.6-2.3-3.6-3.9c0-1.2,0.5-2.2,1.4-2.9c0.9-0.8,2.1-1.2,3.5-1.2
		c1.1,0,2.1,0.2,2.8,0.7c0.7,0.4,1.4,1.3,2.2,2.6l4.1-2.4C298.1,49,295.1,47.1,291.3,47.1z M268.4,47.8v33.3h5V47.8H268.4z
		 M241,47.8h-5v33.3h5V65.5h14.4v15.6h5V47.8h-5v13H241V47.8z M231.5,52.5v-4.7h-20.3v4.7h7.7v28.6h5V52.5H231.5z M185.1,47.1
		c-2.8,0-5.2,0.8-7.1,2.5c-1.9,1.7-2.9,3.8-2.9,6.3c0,3.7,2.3,6.5,6.8,8.5l3.2,1.3c0.8,0.4,1.6,0.7,2.2,1.1s1.1,0.8,1.5,1.3
		c0.4,0.5,0.7,0.9,0.8,1.5s0.3,1.1,0.3,1.8c0,1.6-0.5,2.9-1.6,4c-1,1-2.3,1.6-3.9,1.6c-2,0-3.5-0.7-4.5-2.2c-0.6-0.7-1-2.1-1.2-4.1
		l-5.1,1.1c0.5,3.1,1.6,5.5,3.5,7.2c1.9,1.7,4.3,2.6,7.2,2.6c3,0,5.6-1,7.7-3c2-2,3.1-4.5,3.1-7.6c0-2.3-0.6-4.2-1.9-5.8
		c-1.3-1.6-3.2-2.9-5.9-4l-3.3-1.4c-2.4-1-3.6-2.3-3.6-3.9c0-1.2,0.5-2.2,1.4-2.9c0.9-0.8,2.1-1.2,3.5-1.2c1.1,0,2.1,0.2,2.8,0.7
		c0.7,0.4,1.4,1.3,2.2,2.6l4.1-2.4C192,49,189,47.1,185.1,47.1z M162.3,47.8v33.3h5V47.8H162.3z"/>
	<path d="M425.2,76.9c-0.5-0.5-0.7-1.2-0.7-2.2c0-0.5-0.3-0.8-0.8-0.8c-1.8,0.8-3,1.6-3.5,2.4c-0.5,0.8-0.8,1.6-0.8,2.4
		c0,0.5,0.3,1,0.9,1.5c0.6,0.5,1.1,0.8,1.4,0.8c0.4,0,0.8-0.1,1.3-0.3c0.5-0.2,0.9-0.4,1.4-0.7c0.4-0.3,0.8-0.6,1.1-0.9
		c0.3-0.3,0.4-0.6,0.4-0.8C425.9,77.9,425.7,77.4,425.2,76.9z M451.6,34.7c-1.3-1.1-3-2-5.2-2.7c-1.5-0.4-2.7-0.8-3.5-1.2
		c-0.8-0.4-1.3-0.7-1.5-1.1c-0.3-0.4-0.3-0.7-0.2-1c0.1-0.3,0.3-0.7,0.5-1.2c-0.3-0.2-0.8,0.1-1.6,0.9c-0.8,0.8-1.5,1.7-2,2.5
		c-0.4,0.6-0.5,1.1-0.1,1.6c0.4,0.5,1.9,1.1,4.4,1.9c2.8,0.8,4.7,1.8,5.7,2.9c1,1.1,1.5,2.7,1.5,4.7c0,1.8-0.4,3.4-1.1,4.8
		c-0.7,1.4-1.8,2.7-3.1,4c-1.3,1.3-2.9,2.6-4.7,3.8c-1.8,1.3-3.7,2.6-5.8,4c-1.5,1-2.7,1.9-3.6,2.6c-1,0.7-1.7,1.3-2.3,1.9
		c-0.4,0.3-0.7,0.7-1,1.2c-0.3,0.5-0.5,1-0.5,1.6c0,1,0.1,1.9,0.3,2.7c0.2,0.8,0.8,1.6,1.7,2.2c1-0.1,1.7-0.2,2.1-0.2
		c0.4,0,0.8,0.1,1.2,0.2c0.7,0,0.8-0.3,0.1-0.8c-0.8-0.7-1.4-1.5-1.8-2.2c-0.4-0.7-0.6-1.6-0.6-2.7c0-0.8,0.3-1.6,0.9-2.3
		c0.6-0.7,1.5-1.5,2.6-2.3c1.1-0.8,2.4-1.7,4-2.8c1.6-1,3.4-2.3,5.4-3.8c2.4-1.8,4.2-3.4,5.6-4.8c1.4-1.4,2.4-2.8,3.1-4
		c0.7-1.2,1.1-2.3,1.3-3.3c0.2-1,0.3-1.8,0.3-2.4C453.5,37.5,452.9,35.9,451.6,34.7z M417.5,40.3c-0.1-0.2-0.2-0.3-0.3-0.3
		c-1.1,0.4-2.4,0.8-3.8,1.4c-1.4,0.6-2.6,1.1-3.4,1.4c-0.7,1.1-1.4,2.3-2.3,3.6c-0.8,1.3-1.7,2.6-2.5,4c-0.8,1.4-1.6,2.7-2.4,4.1
		c-0.8,1.4-1.5,2.6-2.2,3.7l-5.6,0.1c-0.7,0.5-1.1,1-1.4,1.5c0,0.3,0.2,0.4,0.6,0.4c0.2,0,1-0.1,2.3-0.2c1.3-0.1,2.4-0.2,3.3-0.3
		c-2.6,4.2-4.5,7.7-5.9,10.6c-1.3,2.9-2,5-2,6.5c0,1.7,0.4,2.9,1.3,3.6s1.9,1,3.1,1c2.2,0,4.4-0.4,6.5-1.1c2.1-0.7,4.5-1.9,7-3.5
		c0.4-0.1,0.4-0.3,0.2-0.6c-0.2-0.3-0.4-0.3-0.7-0.1c-1.7,1-3.3,1.9-4.8,2.5c-1.5,0.6-2.9,0.9-4,0.9c-2.4,0-3.6-1.3-3.6-4
		c0-1.9,0.6-4.2,1.7-6.7c1.1-2.6,2.7-5.7,4.8-9.4c1.1-0.1,2.4-0.1,3.9-0.2c1.5-0.1,2.9-0.1,4.3-0.2c1.4-0.1,2.7-0.1,3.9-0.2
		c1.2,0,2.1-0.1,2.7-0.1c0.1-0.1,0.2-0.2,0.2-0.3c0-0.1-0.1-0.3-0.3-0.4H404c1.5-2.6,3-5.2,4.6-7.7c1.6-2.6,3.2-5,4.9-7.4
		c0.4-0.6,0.9-1.1,1.7-1.5c0.7-0.4,1.4-0.7,2-0.8C417.5,40.6,417.6,40.5,417.5,40.3z M397.2,65.8c0-0.2-0.2-0.1-0.6,0.3
		c-0.8,1.1-2,2.4-3.4,4c-1.5,1.5-3.1,3-4.8,4.4c-1.7,1.4-3.5,2.6-5.2,3.6s-3.4,1.5-4.9,1.5c-0.8,0-1.5-0.2-1.9-0.6
		c-0.5-0.4-0.7-1-0.7-1.9c0-0.8,0.2-1.9,0.7-3.3c0.5-1.4,1.1-2.9,1.9-4.6c0.8-1.7,1.7-3.4,2.7-5.1s2-3.4,2.9-4.9
		c0.1-0.1,0.3-0.4,0.4-0.7c0.1-0.3,0.2-0.5,0.2-0.7c0-0.2-0.2-0.3-0.6-0.3c-0.3,0-0.9,0.2-1.8,0.6c-0.9,0.4-1.6,0.9-1.9,1.5
		c-0.6,0.8-1.4,2-2.4,3.6c-1,1.6-2,3.3-3,5.1c-1,1.8-1.9,3.5-2.6,5.1c-0.7,1.7-1.1,3-1.1,3.9c0,0.8,0.2,1.5,0.5,1.9
		c0.3,0.5,0.7,0.9,1.2,1.2c0.5,0.3,1,0.5,1.6,0.6c0.6,0.1,1.1,0.1,1.5,0.1c1.3,0,2.7-0.3,4.2-0.8c1.5-0.5,3.1-1.3,4.5-2.2
		c1.9-1.3,4-2.9,6.3-5c2.3-2.1,4.3-4.2,6.1-6.5C397.2,66.2,397.3,66,397.2,65.8z M390.7,40.5c-1,0-1.9,0.4-2.6,1.3
		c-0.7,0.9-1,1.8-1,2.8c0,0.9,0.4,1.3,1.3,1.3c1,0,1.8-0.4,2.6-1.3s1.2-1.8,1.2-2.7C392.1,41,391.6,40.5,390.7,40.5z M413.1,4.1
		c-0.6-1.1-1.4-1.9-2.4-2.5c-1-0.6-2-1-3.1-1.3c-1.1-0.3-2.2-0.4-3.2-0.4c-4.1,0-8.2,1.5-12.3,4.5s-8.1,6.8-12.1,11.5
		c-4,4.7-7.9,9.9-11.7,15.7c-3.8,5.7-7.5,11.4-11,16.9c-3,4.8-6,9.7-8.9,14.6c-2.9,5-6,10.3-9.1,15.9c-0.2,0.4-0.3,0.8-0.3,1.2
		c0,0.5,0.3,0.9,0.9,1c0.6,0.2,1.1,0.3,1.4,0.3c0.5,0,1.1-0.6,1.7-1.8c0.8-1.5,1.8-3.3,2.9-5.3c1.1-2,2.2-3.9,3.2-5.7
		c2.6-3.5,4.7-5.8,6.5-7.1c1.7-1.3,2.9-1.9,3.6-1.9c0.2,0,0.3,0.2,0.3,0.6c0,0.7-0.4,1.8-1.2,3.4c-0.8,1.6-1.7,3.3-2.7,5.2
		c-1,1.9-1.9,3.7-2.7,5.6c-0.8,1.8-1.2,3.4-1.2,4.5c0,1.3,0.4,2.2,1.1,2.9c0.7,0.7,1.7,1,3,1c1.6,0,3.4-0.5,5.4-1.5
		c2-1,3.9-2.3,5.9-3.9c2-1.6,3.9-3.4,5.7-5.4s3.5-4,4.9-6c0-0.3-0.1-0.4-0.2-0.4c-0.1,0-0.3,0.1-0.4,0.2c-4,5.3-7.5,9.1-10.6,11.3
		c-3.1,2.2-5.5,3.3-7.2,3.3c-1,0-1.8-0.3-2.4-0.9c-0.6-0.6-0.9-1.5-0.9-2.7c0-1,0.3-2.4,1-4.1c0.7-1.7,1.5-3.4,2.4-5.2
		c0.9-1.8,1.9-3.4,2.8-5c1-1.5,1.7-2.8,2.3-3.6c0.7-0.9,1-1.5,1-2c0-0.5-0.3-0.8-1-0.8c-0.9,0-2,0.3-3.2,1c-1.3,0.7-2.5,1.4-3.9,2.3
		c-1.3,0.9-2.5,1.8-3.6,2.7s-1.9,1.5-2.4,2c4.4-8.7,8.5-16.2,12.2-22.6c3.7-6.4,7.2-11.8,10.3-16.2c3.2-4.5,6.1-8.1,8.8-10.9
		c2.7-2.8,5.2-5,7.6-6.6c2.4-1.6,4.5-2.7,6.6-3.2c2-0.6,4-0.8,5.9-0.8c2.2,0,4,0.3,5.4,0.9c1.4,0.6,2.5,1.4,3.3,2.2
		c0.8,0.8,1.3,1.7,1.5,2.6c0.3,0.9,0.4,1.6,0.4,2.1c0,0.1,0.1,0.3,0.2,0.4c0.1,0.1,0.2,0.1,0.3-0.2c0.1-0.2,0.2-0.6,0.3-1.2
		c0.1-0.6,0.2-1.5,0.2-2.7C414.1,6.6,413.8,5.2,413.1,4.1z M338.7,59.6c0.2-0.5,0.4-0.9,0.7-1.3c0-0.7-0.6-1.1-1.8-1.1
		c-1.1,0-2.2,0.3-3.4,0.9c-1.1,0.6-2.2,1.3-3.1,2.2c-1,0.8-1.8,1.8-2.4,2.8c-0.6,1-0.9,2-0.9,2.9c0,0.9,0.2,1.7,0.7,2.4
		c0.4,0.7,0.9,1.5,1.3,2.2c0.4,0.7,0.8,1.4,1.2,2.2c0.4,0.8,0.6,1.7,0.6,2.7c0,1.3-0.3,2.2-0.8,3c-0.5,0.7-1.1,1.3-1.8,1.7
		c-0.7,0.4-1.5,0.7-2.3,0.8c-0.8,0.1-1.5,0.2-2.1,0.2c-1.4,0-2.6-0.5-3.6-1.4c-1-1-1.7-2.1-2.1-3.4c-0.1-0.3-0.2-0.4-0.3-0.4
		c-0.2,0.3-0.6,0.6-1,0.9c-0.5,0.3-0.9,0.6-1.3,0.8c0.4,3,2.9,4.5,7.4,4.5c0.7,0,1.7-0.1,3-0.4c1.3-0.3,2.5-0.8,3.7-1.5
		c1.2-0.7,2.3-1.7,3.1-2.9c0.9-1.2,1.3-2.8,1.3-4.7c0-1-0.3-1.9-0.8-2.8c-0.5-0.9-1.1-1.8-1.7-2.7c-0.7-1-1.2-1.7-1.5-2.3
		c-0.4-0.6-0.6-1.2-0.6-1.8c0-1.2,0.5-2.1,1.5-2.7c1-0.6,2.1-0.9,3.1-0.9c1.4,0,2.3,0.5,2.8,1.4c0.1,0.3,0.3,0.3,0.6-0.1
		C338.3,60.5,338.5,60.1,338.7,59.6z"/>
</g>
</svg>
