<?xml version="1.0" encoding="utf-8"?>
<!-- Generator: Adobe Illustrator 16.0.0, SVG Export Plug-In . SVG Version: 6.00 Build 0)  -->
<!DOCTYPE svg PUBLIC "-//W3C//DTD SVG 1.1//EN" "http://www.w3.org/Graphics/SVG/1.1/DTD/svg11.dtd">
<svg version="1.1" id="Layer_1" xmlns="http://www.w3.org/2000/svg" xmlns:xlink="http://www.w3.org/1999/xlink" x="0px" y="0px"
	 width="161.9px" height="161.9px" viewBox="0 0 161.9 161.9" enable-background="new 0 0 161.9 161.9" xml:space="preserve">
<linearGradient id="SVGID_1_" gradientUnits="userSpaceOnUse" x1="65.2559" y1="80.9399" x2="96.8543" y2="80.9399">
	<stop  offset="0" style="stop-color:#00B8E9"/>
	<stop  offset="0.6771" style="stop-color:#3CEBC4"/>
	<stop  offset="1" style="stop-color:#54FFB5"/>
</linearGradient>
<path fill="url(#SVGID_1_)" stroke="#FFFFFF" stroke-width="1.5372" stroke-miterlimit="10" d="M93.4,80.9c0,1.1,0.1,2.3,0.2,3.4
	c-0.6,0.9-1.2,1.9-1.8,2.8s-1.1,2-1.6,3c-1,0.5-2,1-3,1.6c-1,0.6-1.9,1.2-2.8,1.8c-1.1-0.1-2.2-0.2-3.4-0.2c-1.1,0-2.3,0.1-3.4,0.2
	c-0.9-0.6-1.9-1.2-2.8-1.8c-1-0.6-2-1.1-3-1.6c-0.5-1-1-2-1.6-3c-0.6-1-1.2-1.9-1.8-2.8c0.1-1.1,0.2-2.2,0.2-3.4
	c0-1.1-0.1-2.3-0.2-3.4c0.6-0.9,1.2-1.9,1.8-2.8c0.6-1,1.1-2,1.6-3c1-0.5,2-1,3-1.6c1-0.6,1.9-1.2,2.8-1.8c1.1,0.1,2.2,0.2,3.4,0.2
	s2.3-0.1,3.4-0.2c0.9,0.6,1.9,1.2,2.8,1.8c1,0.6,2,1.1,3,1.6c0.5,1,1,2,1.6,3s1.2,1.9,1.8,2.8C93.4,78.7,93.4,79.8,93.4,80.9z"/>
<linearGradient id="SVGID_2_" gradientUnits="userSpaceOnUse" x1="76.7378" y1="67.1187" x2="85.2035" y2="67.1187">
	<stop  offset="0" style="stop-color:#00B8E9"/>
	<stop  offset="0.6771" style="stop-color:#3CEBC4"/>
	<stop  offset="1" style="stop-color:#54FFB5"/>
</linearGradient>
<path fill="url(#SVGID_2_)" stroke="#FFFFFF" stroke-width="1.5372" stroke-miterlimit="10" d="M80.9,68.5c1.1,0,2.3-0.1,3.4-0.2
	c-1.2-0.8-2.3-1.7-3.4-2.7c-1.1,0.9-2.2,1.8-3.4,2.7C78.7,68.5,79.8,68.5,80.9,68.5z"/>
<linearGradient id="SVGID_3_" gradientUnits="userSpaceOnUse" x1="71.0186" y1="69.7446" x2="78.3508" y2="69.7446">
	<stop  offset="0" style="stop-color:#00B8E9"/>
	<stop  offset="0.6771" style="stop-color:#3CEBC4"/>
	<stop  offset="1" style="stop-color:#54FFB5"/>
</linearGradient>
<path fill="url(#SVGID_3_)" stroke="#FFFFFF" stroke-width="1.5372" stroke-miterlimit="10" d="M74.7,70.2c1-0.6,1.9-1.2,2.8-1.8
	c-1.4-0.1-2.9-0.3-4.2-0.6c-0.4,1.3-1,2.7-1.6,4C72.8,71.3,73.8,70.8,74.7,70.2z"/>
<linearGradient id="SVGID_4_" gradientUnits="userSpaceOnUse" x1="41.1323" y1="17.876" x2="85.6602" y2="17.876">
	<stop  offset="0" style="stop-color:#00B8E9"/>
	<stop  offset="0.6771" style="stop-color:#3CEBC4"/>
	<stop  offset="1" style="stop-color:#54FFB5"/>
</linearGradient>
<path fill="url(#SVGID_4_)" stroke="#FFFFFF" stroke-width="1.5372" stroke-miterlimit="10" d="M45.5,19.6c3.8,0.8,7.5,2.2,11,4.2
	c5,2.9,9,6.7,12.1,11.1c0.4-5.4,2-10.7,4.9-15.7c2-3.5,4.6-6.6,7.4-9.2c-6-5.4-13.6-8.6-21.5-9.3C53,5.4,48.1,11.9,45.5,19.6z"/>
<linearGradient id="SVGID_5_" gradientUnits="userSpaceOnUse" x1="72.3794" y1="63.7134" x2="81.9552" y2="63.7134">
	<stop  offset="0" style="stop-color:#00B8E9"/>
	<stop  offset="0.6771" style="stop-color:#3CEBC4"/>
	<stop  offset="1" style="stop-color:#54FFB5"/>
</linearGradient>
<path fill="url(#SVGID_5_)" stroke="#FFFFFF" stroke-width="1.5372" stroke-miterlimit="10" d="M80.9,65.7c-2.2-2-4.2-4.2-5.9-6.7
	c-0.2,2.9-0.8,5.8-1.8,8.7c1.4,0.3,2.8,0.5,4.2,0.6C78.8,67.5,79.9,66.7,80.9,65.7z"/>
<linearGradient id="SVGID_6_" gradientUnits="userSpaceOnUse" x1="67.2524" y1="74.6577" x2="72.2749" y2="74.6577">
	<stop  offset="0" style="stop-color:#00B8E9"/>
	<stop  offset="0.6771" style="stop-color:#3CEBC4"/>
	<stop  offset="1" style="stop-color:#54FFB5"/>
</linearGradient>
<path fill="url(#SVGID_6_)" stroke="#FFFFFF" stroke-width="1.5372" stroke-miterlimit="10" d="M70.2,74.7c0.6-1,1.1-2,1.6-3
	c-1.3,0.6-2.6,1.1-4,1.6c0.3,1.4,0.5,2.8,0.6,4.2C69,76.7,69.6,75.7,70.2,74.7z"/>
<linearGradient id="SVGID_7_" gradientUnits="userSpaceOnUse" x1="15.2905" y1="33.0513" x2="51.0752" y2="33.0513">
	<stop  offset="0" style="stop-color:#00B8E9"/>
	<stop  offset="0.6771" style="stop-color:#3CEBC4"/>
	<stop  offset="1" style="stop-color:#54FFB5"/>
</linearGradient>
<path fill="url(#SVGID_7_)" stroke="#FFFFFF" stroke-width="1.5372" stroke-miterlimit="10" d="M19.6,45.5c3.7-1.2,7.6-1.9,11.7-1.9
	c5.7,0,11.2,1.3,16,3.6c-2.3-4.9-3.6-10.3-3.6-16c0-4.1,0.7-8,1.9-11.7C37.6,18,29.5,19,22.3,22.3C19,29.5,18,37.6,19.6,45.5z"/>
<linearGradient id="SVGID_8_" gradientUnits="userSpaceOnUse" x1="63.8726" y1="69.1196" x2="74.4455" y2="69.1196">
	<stop  offset="0" style="stop-color:#00B8E9"/>
	<stop  offset="0.6771" style="stop-color:#3CEBC4"/>
	<stop  offset="1" style="stop-color:#54FFB5"/>
</linearGradient>
<path fill="url(#SVGID_8_)" stroke="#FFFFFF" stroke-width="1.5372" stroke-miterlimit="10" d="M73.3,67.7c-2.9-0.6-5.8-1.6-8.4-2.8
	c1.3,2.6,2.2,5.5,2.8,8.4c1.3-0.4,2.7-1,4-1.6C72.4,70.4,72.9,69.1,73.3,67.7z"/>
<linearGradient id="SVGID_9_" gradientUnits="userSpaceOnUse" x1="40.5015" y1="36.1831" x2="72.5788" y2="36.1831">
	<stop  offset="0" style="stop-color:#00B8E9"/>
	<stop  offset="0.6771" style="stop-color:#3CEBC4"/>
	<stop  offset="1" style="stop-color:#54FFB5"/>
</linearGradient>
<path fill="url(#SVGID_9_)" stroke="#FFFFFF" stroke-width="1.5372" stroke-miterlimit="10" d="M69.2,44.9c-0.6-3.3-0.8-6.6-0.6-10
	c-3-4.4-7.1-8.3-12.1-11.1c-3.5-2-7.2-3.4-11-4.2c-1.2,3.7-1.9,7.6-1.9,11.7c0,5.7,1.3,11.2,3.6,16c3,1.5,5.9,3.3,8.4,5.5
	C59.5,49.3,64.1,46.6,69.2,44.9z"/>
<linearGradient id="SVGID_10_" gradientUnits="userSpaceOnUse" x1="53.2417" y1="56.3452" x2="77.6638" y2="56.3452">
	<stop  offset="0" style="stop-color:#00B8E9"/>
	<stop  offset="0.6771" style="stop-color:#3CEBC4"/>
	<stop  offset="1" style="stop-color:#54FFB5"/>
</linearGradient>
<path fill="url(#SVGID_10_)" stroke="#FFFFFF" stroke-width="1.5372" stroke-miterlimit="10" d="M64.9,64.9c2.6,1.3,5.5,2.2,8.4,2.8
	c0.9-2.9,1.5-5.8,1.8-8.7c-2.9-4.3-4.9-9.1-5.9-14.1c-5.1,1.7-9.7,4.3-13.5,7.8C59.5,56.1,62.7,60.2,64.9,64.9z"/>
<linearGradient id="SVGID_11_" gradientUnits="userSpaceOnUse" x1="65.3574" y1="80.9399" x2="68.9051" y2="80.9399">
	<stop  offset="0" style="stop-color:#00B8E9"/>
	<stop  offset="0.6771" style="stop-color:#3CEBC4"/>
	<stop  offset="1" style="stop-color:#54FFB5"/>
</linearGradient>
<path fill="url(#SVGID_11_)" stroke="#FFFFFF" stroke-width="1.5372" stroke-miterlimit="10" d="M68.5,80.9c0-1.1-0.1-2.3-0.2-3.4
	c-0.8,1.2-1.7,2.3-2.7,3.4c0.9,1.1,1.8,2.2,2.7,3.4C68.5,83.2,68.5,82.1,68.5,80.9z"/>
<linearGradient id="SVGID_12_" gradientUnits="userSpaceOnUse" x1="-3.4507" y1="63.2339" x2="39.5164" y2="63.2339">
	<stop  offset="0" style="stop-color:#00B8E9"/>
	<stop  offset="0.6771" style="stop-color:#3CEBC4"/>
	<stop  offset="1" style="stop-color:#54FFB5"/>
</linearGradient>
<path fill="url(#SVGID_12_)" stroke="#FFFFFF" stroke-width="1.5372" stroke-miterlimit="10" d="M19.3,73.5c5-2.9,10.3-4.5,15.7-4.9
	c-4.4-3-8.3-7.1-11.1-12.1c-2-3.5-3.4-7.2-4.2-11C11.9,48.1,5.4,53,0.8,59.5c0.7,7.9,3.9,15.5,9.3,21.5
	C12.7,78.1,15.8,75.5,19.3,73.5z"/>
<linearGradient id="SVGID_13_" gradientUnits="userSpaceOnUse" x1="57.8936" y1="77.1318" x2="69.6183" y2="77.1318">
	<stop  offset="0" style="stop-color:#00B8E9"/>
	<stop  offset="0.6771" style="stop-color:#3CEBC4"/>
	<stop  offset="1" style="stop-color:#54FFB5"/>
</linearGradient>
<path fill="url(#SVGID_13_)" stroke="#FFFFFF" stroke-width="1.5372" stroke-miterlimit="10" d="M67.7,73.3
	c-2.9,0.9-5.8,1.5-8.7,1.8c2.4,1.7,4.7,3.6,6.7,5.9c0.9-1.1,1.8-2.2,2.7-3.4C68.2,76.1,68,74.7,67.7,73.3z"/>
<linearGradient id="SVGID_14_" gradientUnits="userSpaceOnUse" x1="15.4897" y1="56.4233" x2="57.1822" y2="56.4233">
	<stop  offset="0" style="stop-color:#00B8E9"/>
	<stop  offset="0.6771" style="stop-color:#3CEBC4"/>
	<stop  offset="1" style="stop-color:#54FFB5"/>
</linearGradient>
<path fill="url(#SVGID_14_)" stroke="#FFFFFF" stroke-width="1.5372" stroke-miterlimit="10" d="M44.9,69.2
	c1.7-5.1,4.3-9.7,7.8-13.5c-2.2-2.5-4-5.3-5.5-8.4c-4.9-2.3-10.3-3.6-16-3.6c-4.1,0-8,0.7-11.7,1.9c0.8,3.8,2.2,7.5,4.2,11
	c2.9,5,6.7,9,11.1,12.1C38.3,68.4,41.7,68.5,44.9,69.2z"/>
<linearGradient id="SVGID_15_" gradientUnits="userSpaceOnUse" x1="42.1113" y1="65.3633" x2="70.7884" y2="65.3633">
	<stop  offset="0" style="stop-color:#00B8E9"/>
	<stop  offset="0.6771" style="stop-color:#3CEBC4"/>
	<stop  offset="1" style="stop-color:#54FFB5"/>
</linearGradient>
<path fill="url(#SVGID_15_)" stroke="#FFFFFF" stroke-width="1.5372" stroke-miterlimit="10" d="M67.7,73.3
	c-0.6-2.9-1.6-5.8-2.8-8.4c-4.7-2.2-8.8-5.4-12.2-9.3c-3.5,3.9-6.2,8.5-7.8,13.5c5,1,9.8,3,14.1,5.9C62,74.8,64.9,74.3,67.7,73.3z"
	/>
<linearGradient id="SVGID_16_" gradientUnits="userSpaceOnUse" x1="46.2427" y1="51.4663" x2="56.7689" y2="51.4663">
	<stop  offset="0" style="stop-color:#00B8E9"/>
	<stop  offset="0.6771" style="stop-color:#3CEBC4"/>
	<stop  offset="1" style="stop-color:#54FFB5"/>
</linearGradient>
<path fill="url(#SVGID_16_)" stroke="#FFFFFF" stroke-width="1.5372" stroke-miterlimit="10" d="M55.7,52.8c-2.5-2.2-5.3-4-8.4-5.5
	c1.4,3,3.3,5.9,5.5,8.4C53.7,54.6,54.6,53.7,55.7,52.8z"/>
<linearGradient id="SVGID_17_" gradientUnits="userSpaceOnUse" x1="51.2534" y1="58.8384" x2="66.5369" y2="58.8384">
	<stop  offset="0" style="stop-color:#00B8E9"/>
	<stop  offset="0.6771" style="stop-color:#3CEBC4"/>
	<stop  offset="1" style="stop-color:#54FFB5"/>
</linearGradient>
<path fill="url(#SVGID_17_)" stroke="#FFFFFF" stroke-width="1.5372" stroke-miterlimit="10" d="M64.9,64.9
	c-2.2-4.7-5.4-8.8-9.3-12.2c-1,0.9-2,1.9-2.9,2.9C56.1,59.5,60.2,62.7,64.9,64.9z"/>
<linearGradient id="SVGID_18_" gradientUnits="userSpaceOnUse" x1="67.2524" y1="87.2222" x2="72.2749" y2="87.2222">
	<stop  offset="0" style="stop-color:#00B8E9"/>
	<stop  offset="0.6771" style="stop-color:#3CEBC4"/>
	<stop  offset="1" style="stop-color:#54FFB5"/>
</linearGradient>
<path fill="url(#SVGID_18_)" stroke="#FFFFFF" stroke-width="1.5372" stroke-miterlimit="10" d="M70.2,87.1c-0.6-1-1.2-1.9-1.8-2.8
	c-0.1,1.4-0.3,2.9-0.6,4.2c1.3,0.4,2.7,1,4,1.6C71.3,89.1,70.8,88.1,70.2,87.1z"/>
<linearGradient id="SVGID_19_" gradientUnits="userSpaceOnUse" x1="-3.4507" y1="98.646" x2="39.5164" y2="98.646">
	<stop  offset="0" style="stop-color:#00B8E9"/>
	<stop  offset="0.6771" style="stop-color:#3CEBC4"/>
	<stop  offset="1" style="stop-color:#54FFB5"/>
</linearGradient>
<path fill="url(#SVGID_19_)" stroke="#FFFFFF" stroke-width="1.5372" stroke-miterlimit="10" d="M19.6,116.4c0.8-3.8,2.2-7.5,4.2-11
	c2.9-5,6.7-9,11.1-12.1c-5.4-0.4-10.7-2-15.7-4.9c-3.5-2-6.6-4.6-9.2-7.4c-5.4,6-8.6,13.6-9.3,21.5C5.4,108.9,11.9,113.8,19.6,116.4
	z"/>
<linearGradient id="SVGID_20_" gradientUnits="userSpaceOnUse" x1="57.8936" y1="84.7476" x2="69.6183" y2="84.7476">
	<stop  offset="0" style="stop-color:#00B8E9"/>
	<stop  offset="0.6771" style="stop-color:#3CEBC4"/>
	<stop  offset="1" style="stop-color:#54FFB5"/>
</linearGradient>
<path fill="url(#SVGID_20_)" stroke="#FFFFFF" stroke-width="1.5372" stroke-miterlimit="10" d="M65.7,80.9c-2,2.2-4.2,4.2-6.7,5.9
	c2.9,0.2,5.8,0.8,8.7,1.8c0.3-1.4,0.5-2.8,0.6-4.2C67.5,83.1,66.7,82,65.7,80.9z"/>
<linearGradient id="SVGID_21_" gradientUnits="userSpaceOnUse" x1="5.9253" y1="80.9399" x2="48.3877" y2="80.9399">
	<stop  offset="0" style="stop-color:#00B8E9"/>
	<stop  offset="0.6771" style="stop-color:#3CEBC4"/>
	<stop  offset="1" style="stop-color:#54FFB5"/>
</linearGradient>
<path fill="url(#SVGID_21_)" stroke="#FFFFFF" stroke-width="1.5372" stroke-miterlimit="10" d="M43.1,80.9c0-2.7,0.3-5.3,0.8-7.8
	c-3.1-1.1-6.2-2.6-8.9-4.5c-5.4,0.4-10.7,2-15.7,4.9c-3.5,2-6.6,4.6-9.2,7.4c2.6,2.9,5.6,5.4,9.2,7.4c5,2.9,10.3,4.5,15.7,4.9
	c2.8-1.9,5.8-3.4,8.9-4.5C43.4,86.2,43.1,83.6,43.1,80.9z"/>
<linearGradient id="SVGID_22_" gradientUnits="userSpaceOnUse" x1="40.2681" y1="80.9399" x2="68.7241" y2="80.9399">
	<stop  offset="0" style="stop-color:#00B8E9"/>
	<stop  offset="0.6771" style="stop-color:#3CEBC4"/>
	<stop  offset="1" style="stop-color:#54FFB5"/>
</linearGradient>
<path fill="url(#SVGID_22_)" stroke="#FFFFFF" stroke-width="1.5372" stroke-miterlimit="10" d="M59.1,86.8c2.4-1.7,4.7-3.6,6.7-5.9
	c-2-2.2-4.2-4.2-6.7-5.9c-5.2,0.4-10.3-0.3-15.2-1.9c-0.5,2.5-0.8,5.1-0.8,7.8c0,2.7,0.3,5.3,0.8,7.8C48.7,87.1,53.9,86.4,59.1,86.8
	z"/>
<linearGradient id="SVGID_23_" gradientUnits="userSpaceOnUse" x1="33.7222" y1="70.8159" x2="46.2734" y2="70.8159">
	<stop  offset="0" style="stop-color:#00B8E9"/>
	<stop  offset="0.6771" style="stop-color:#3CEBC4"/>
	<stop  offset="1" style="stop-color:#54FFB5"/>
</linearGradient>
<path fill="url(#SVGID_23_)" stroke="#FFFFFF" stroke-width="1.5372" stroke-miterlimit="10" d="M44.9,69.2c-3.3-0.6-6.6-0.8-10-0.6
	c2.8,1.9,5.8,3.4,8.9,4.5C44.2,71.8,44.5,70.5,44.9,69.2z"/>
<linearGradient id="SVGID_24_" gradientUnits="userSpaceOnUse" x1="42.0034" y1="72.1836" x2="61.0728" y2="72.1836">
	<stop  offset="0" style="stop-color:#00B8E9"/>
	<stop  offset="0.6771" style="stop-color:#3CEBC4"/>
	<stop  offset="1" style="stop-color:#54FFB5"/>
</linearGradient>
<path fill="url(#SVGID_24_)" stroke="#FFFFFF" stroke-width="1.5372" stroke-miterlimit="10" d="M59.1,75.1
	c-4.3-2.9-9.1-4.9-14.1-5.9c-0.4,1.3-0.8,2.6-1.1,3.9C48.7,74.8,53.9,75.5,59.1,75.1z"/>
<linearGradient id="SVGID_25_" gradientUnits="userSpaceOnUse" x1="71.0186" y1="92.1353" x2="78.3508" y2="92.1353">
	<stop  offset="0" style="stop-color:#00B8E9"/>
	<stop  offset="0.6771" style="stop-color:#3CEBC4"/>
	<stop  offset="1" style="stop-color:#54FFB5"/>
</linearGradient>
<path fill="url(#SVGID_25_)" stroke="#FFFFFF" stroke-width="1.5372" stroke-miterlimit="10" d="M74.7,91.7c-1-0.6-2-1.1-3-1.6
	c0.6,1.3,1.1,2.6,1.6,4c1.4-0.3,2.8-0.5,4.2-0.6C76.7,92.9,75.7,92.3,74.7,91.7z"/>
<linearGradient id="SVGID_26_" gradientUnits="userSpaceOnUse" x1="15.29" y1="128.8276" x2="51.0753" y2="128.8276">
	<stop  offset="0" style="stop-color:#00B8E9"/>
	<stop  offset="0.6771" style="stop-color:#3CEBC4"/>
	<stop  offset="1" style="stop-color:#54FFB5"/>
</linearGradient>
<path fill="url(#SVGID_26_)" stroke="#FFFFFF" stroke-width="1.5372" stroke-miterlimit="10" d="M45.5,142.3
	c-1.2-3.7-1.9-7.6-1.9-11.7c0-5.7,1.3-11.2,3.6-16c-4.9,2.3-10.3,3.6-16,3.6c-4.1,0-8-0.7-11.7-1.9c-1.7,7.9-0.7,16.1,2.7,23.3
	C29.5,142.9,37.6,143.9,45.5,142.3z"/>
<linearGradient id="SVGID_27_" gradientUnits="userSpaceOnUse" x1="63.8726" y1="92.7593" x2="74.4455" y2="92.7593">
	<stop  offset="0" style="stop-color:#00B8E9"/>
	<stop  offset="0.6771" style="stop-color:#3CEBC4"/>
	<stop  offset="1" style="stop-color:#54FFB5"/>
</linearGradient>
<path fill="url(#SVGID_27_)" stroke="#FFFFFF" stroke-width="1.5372" stroke-miterlimit="10" d="M67.7,88.6
	c-0.6,2.9-1.6,5.8-2.8,8.4c2.6-1.3,5.5-2.2,8.4-2.8c-0.4-1.3-1-2.7-1.6-4C70.4,89.5,69.1,89,67.7,88.6z"/>
<linearGradient id="SVGID_28_" gradientUnits="userSpaceOnUse" x1="15.4897" y1="105.4565" x2="57.1822" y2="105.4565">
	<stop  offset="0" style="stop-color:#00B8E9"/>
	<stop  offset="0.6771" style="stop-color:#3CEBC4"/>
	<stop  offset="1" style="stop-color:#54FFB5"/>
</linearGradient>
<path fill="url(#SVGID_28_)" stroke="#FFFFFF" stroke-width="1.5372" stroke-miterlimit="10" d="M44.9,92.7c-3.3,0.6-6.6,0.8-10,0.6
	c-4.4,3-8.3,7.1-11.1,12.1c-2,3.5-3.4,7.2-4.2,11c3.7,1.2,7.6,1.9,11.7,1.9c5.7,0,11.2-1.3,16-3.6c1.4-3,3.3-5.9,5.5-8.4
	C49.3,102.4,46.6,97.8,44.9,92.7z"/>
<linearGradient id="SVGID_29_" gradientUnits="userSpaceOnUse" x1="42.1113" y1="96.5151" x2="70.7884" y2="96.5151">
	<stop  offset="0" style="stop-color:#00B8E9"/>
	<stop  offset="0.6771" style="stop-color:#3CEBC4"/>
	<stop  offset="1" style="stop-color:#54FFB5"/>
</linearGradient>
<path fill="url(#SVGID_29_)" stroke="#FFFFFF" stroke-width="1.5372" stroke-miterlimit="10" d="M64.9,97c1.3-2.6,2.2-5.5,2.8-8.4
	c-2.9-0.9-5.8-1.5-8.7-1.8c-4.3,2.9-9.1,4.9-14.1,5.9c1.7,5.1,4.3,9.7,7.8,13.5C56.1,102.4,60.2,99.2,64.9,97z"/>
<linearGradient id="SVGID_30_" gradientUnits="userSpaceOnUse" x1="33.7222" y1="91.064" x2="46.2734" y2="91.064">
	<stop  offset="0" style="stop-color:#00B8E9"/>
	<stop  offset="0.6771" style="stop-color:#3CEBC4"/>
	<stop  offset="1" style="stop-color:#54FFB5"/>
</linearGradient>
<path fill="url(#SVGID_30_)" stroke="#FFFFFF" stroke-width="1.5372" stroke-miterlimit="10" d="M44.9,92.7
	c-0.4-1.3-0.8-2.6-1.1-3.9c-3.1,1.1-6.2,2.6-8.9,4.5C38.3,93.5,41.7,93.3,44.9,92.7z"/>
<linearGradient id="SVGID_31_" gradientUnits="userSpaceOnUse" x1="42.0034" y1="89.6958" x2="61.0728" y2="89.6958">
	<stop  offset="0" style="stop-color:#00B8E9"/>
	<stop  offset="0.6771" style="stop-color:#3CEBC4"/>
	<stop  offset="1" style="stop-color:#54FFB5"/>
</linearGradient>
<path fill="url(#SVGID_31_)" stroke="#FFFFFF" stroke-width="1.5372" stroke-miterlimit="10" d="M43.9,88.8c0.3,1.3,0.6,2.7,1.1,3.9
	c5-1,9.8-3,14.1-5.9C53.9,86.4,48.7,87.1,43.9,88.8z"/>
<linearGradient id="SVGID_32_" gradientUnits="userSpaceOnUse" x1="76.7378" y1="94.7612" x2="85.2047" y2="94.7612">
	<stop  offset="0" style="stop-color:#00B8E9"/>
	<stop  offset="0.6771" style="stop-color:#3CEBC4"/>
	<stop  offset="1" style="stop-color:#54FFB5"/>
</linearGradient>
<path fill="url(#SVGID_32_)" stroke="#FFFFFF" stroke-width="1.5372" stroke-miterlimit="10" d="M80.9,93.4c-1.1,0-2.3,0.1-3.4,0.2
	c1.2,0.8,2.3,1.7,3.4,2.7c1.1-0.9,2.2-1.8,3.4-2.7C83.2,93.4,82.1,93.4,80.9,93.4z"/>
<linearGradient id="SVGID_33_" gradientUnits="userSpaceOnUse" x1="41.1323" y1="144.0034" x2="85.6602" y2="144.0034">
	<stop  offset="0" style="stop-color:#00B8E9"/>
	<stop  offset="0.6771" style="stop-color:#3CEBC4"/>
	<stop  offset="1" style="stop-color:#54FFB5"/>
</linearGradient>
<path fill="url(#SVGID_33_)" stroke="#FFFFFF" stroke-width="1.5372" stroke-miterlimit="10" d="M73.5,142.6
	c-2.9-5-4.5-10.3-4.9-15.7c-3,4.4-7.1,8.3-12.1,11.1c-3.5,2-7.2,3.4-11,4.2c2.5,7.7,7.5,14.2,13.9,18.8c7.9-0.7,15.5-3.9,21.5-9.3
	C78.1,149.2,75.5,146.1,73.5,142.6z"/>
<linearGradient id="SVGID_34_" gradientUnits="userSpaceOnUse" x1="72.3794" y1="98.1675" x2="81.9552" y2="98.1675">
	<stop  offset="0" style="stop-color:#00B8E9"/>
	<stop  offset="0.6771" style="stop-color:#3CEBC4"/>
	<stop  offset="1" style="stop-color:#54FFB5"/>
</linearGradient>
<path fill="url(#SVGID_34_)" stroke="#FFFFFF" stroke-width="1.5372" stroke-miterlimit="10" d="M73.3,94.1c0.9,2.9,1.5,5.8,1.8,8.7
	c1.7-2.4,3.6-4.7,5.9-6.7c-1.1-0.9-2.2-1.8-3.4-2.7C76.1,93.6,74.7,93.8,73.3,94.1z"/>
<linearGradient id="SVGID_35_" gradientUnits="userSpaceOnUse" x1="40.5015" y1="125.6968" x2="72.5788" y2="125.6968">
	<stop  offset="0" style="stop-color:#00B8E9"/>
	<stop  offset="0.6771" style="stop-color:#3CEBC4"/>
	<stop  offset="1" style="stop-color:#54FFB5"/>
</linearGradient>
<path fill="url(#SVGID_35_)" stroke="#FFFFFF" stroke-width="1.5372" stroke-miterlimit="10" d="M69.2,116.9
	c-5.1-1.7-9.7-4.3-13.5-7.8c-2.5,2.2-5.3,4-8.4,5.5c-2.3,4.9-3.6,10.3-3.6,16c0,4.1,0.7,8,1.9,11.7c3.8-0.8,7.5-2.2,11-4.2
	c5-2.9,9-6.7,12.1-11.1C68.4,123.6,68.5,120.2,69.2,116.9z"/>
<linearGradient id="SVGID_36_" gradientUnits="userSpaceOnUse" x1="53.2427" y1="105.5347" x2="77.6636" y2="105.5347">
	<stop  offset="0" style="stop-color:#00B8E9"/>
	<stop  offset="0.6771" style="stop-color:#3CEBC4"/>
	<stop  offset="1" style="stop-color:#54FFB5"/>
</linearGradient>
<path fill="url(#SVGID_36_)" stroke="#FFFFFF" stroke-width="1.5372" stroke-miterlimit="10" d="M73.3,94.1
	c-2.9,0.6-5.8,1.6-8.4,2.8c-2.2,4.7-5.4,8.8-9.3,12.2c3.9,3.5,8.5,6.2,13.5,7.8c1-5,3-9.8,5.9-14.1C74.8,99.9,74.3,97,73.3,94.1z"/>
<linearGradient id="SVGID_37_" gradientUnits="userSpaceOnUse" x1="46.2422" y1="110.4136" x2="56.7697" y2="110.4136">
	<stop  offset="0" style="stop-color:#00B8E9"/>
	<stop  offset="0.6771" style="stop-color:#3CEBC4"/>
	<stop  offset="1" style="stop-color:#54FFB5"/>
</linearGradient>
<path fill="url(#SVGID_37_)" stroke="#FFFFFF" stroke-width="1.5372" stroke-miterlimit="10" d="M52.8,106.2c-2.2,2.5-4,5.3-5.5,8.4
	c3-1.5,5.9-3.3,8.4-5.5C54.6,108.2,53.7,107.2,52.8,106.2z"/>
<linearGradient id="SVGID_38_" gradientUnits="userSpaceOnUse" x1="51.2534" y1="103.0405" x2="66.5369" y2="103.0405">
	<stop  offset="0" style="stop-color:#00B8E9"/>
	<stop  offset="0.6771" style="stop-color:#3CEBC4"/>
	<stop  offset="1" style="stop-color:#54FFB5"/>
</linearGradient>
<path fill="url(#SVGID_38_)" stroke="#FFFFFF" stroke-width="1.5372" stroke-miterlimit="10" d="M64.9,97c-4.7,2.2-8.8,5.4-12.2,9.3
	c0.9,1,1.9,2,2.9,2.9C59.5,105.8,62.7,101.6,64.9,97z"/>
<linearGradient id="SVGID_39_" gradientUnits="userSpaceOnUse" x1="83.5835" y1="92.1353" x2="90.9158" y2="92.1353">
	<stop  offset="0" style="stop-color:#00B8E9"/>
	<stop  offset="0.6771" style="stop-color:#3CEBC4"/>
	<stop  offset="1" style="stop-color:#54FFB5"/>
</linearGradient>
<path fill="url(#SVGID_39_)" stroke="#FFFFFF" stroke-width="1.5372" stroke-miterlimit="10" d="M87.1,91.7c-1,0.6-1.9,1.2-2.8,1.8
	c1.4,0.1,2.9,0.3,4.2,0.6c0.4-1.3,1-2.7,1.6-4C89.1,90.6,88.1,91.1,87.1,91.7z"/>
<linearGradient id="SVGID_40_" gradientUnits="userSpaceOnUse" x1="76.5435" y1="144.0034" x2="121.0726" y2="144.0034">
	<stop  offset="0" style="stop-color:#00B8E9"/>
	<stop  offset="0.6771" style="stop-color:#3CEBC4"/>
	<stop  offset="1" style="stop-color:#54FFB5"/>
</linearGradient>
<path fill="url(#SVGID_40_)" stroke="#FFFFFF" stroke-width="1.5372" stroke-miterlimit="10" d="M116.4,142.3
	c-3.8-0.8-7.5-2.2-11-4.2c-5-2.9-9-6.7-12.1-11.1c-0.4,5.4-2,10.7-4.9,15.7c-2,3.5-4.6,6.6-7.4,9.2c6,5.4,13.6,8.6,21.5,9.3
	C108.9,156.5,113.8,149.9,116.4,142.3z"/>
<linearGradient id="SVGID_41_" gradientUnits="userSpaceOnUse" x1="79.9941" y1="98.1665" x2="89.5712" y2="98.1665">
	<stop  offset="0" style="stop-color:#00B8E9"/>
	<stop  offset="0.6771" style="stop-color:#3CEBC4"/>
	<stop  offset="1" style="stop-color:#54FFB5"/>
</linearGradient>
<path fill="url(#SVGID_41_)" stroke="#FFFFFF" stroke-width="1.5372" stroke-miterlimit="10" d="M80.9,96.2c2.2,2,4.2,4.2,5.9,6.7
	c0.2-2.9,0.8-5.8,1.8-8.7c-1.4-0.3-2.8-0.5-4.2-0.6C83.1,94.3,82,95.2,80.9,96.2z"/>
<linearGradient id="SVGID_42_" gradientUnits="userSpaceOnUse" x1="65.5605" y1="134.8784" x2="96.545" y2="134.8784">
	<stop  offset="0" style="stop-color:#00B8E9"/>
	<stop  offset="0.6771" style="stop-color:#3CEBC4"/>
	<stop  offset="1" style="stop-color:#54FFB5"/>
</linearGradient>
<path fill="url(#SVGID_42_)" stroke="#FFFFFF" stroke-width="1.5372" stroke-miterlimit="10" d="M80.9,118.8c-2.7,0-5.3-0.3-7.8-0.8
	c-1.1,3.1-2.6,6.2-4.5,8.9c0.4,5.4,2,10.7,4.9,15.7c2,3.5,4.6,6.6,7.4,9.2c2.9-2.6,5.4-5.6,7.4-9.2c2.9-5,4.5-10.3,4.9-15.7
	c-1.9-2.8-3.4-5.8-4.5-8.9C86.2,118.5,83.6,118.8,80.9,118.8z"/>
<linearGradient id="SVGID_43_" gradientUnits="userSpaceOnUse" x1="71.1885" y1="107.4878" x2="90.835" y2="107.4878">
	<stop  offset="0" style="stop-color:#00B8E9"/>
	<stop  offset="0.6771" style="stop-color:#3CEBC4"/>
	<stop  offset="1" style="stop-color:#54FFB5"/>
</linearGradient>
<path fill="url(#SVGID_43_)" stroke="#FFFFFF" stroke-width="1.5372" stroke-miterlimit="10" d="M86.8,102.8
	c-1.7-2.4-3.6-4.7-5.9-6.7c-2.2,2-4.2,4.2-5.9,6.7c0.4,5.2-0.3,10.3-1.9,15.2c2.5,0.5,5.1,0.8,7.8,0.8c2.7,0,5.3-0.3,7.8-0.8
	C87.1,113.2,86.4,108,86.8,102.8z"/>
<linearGradient id="SVGID_44_" gradientUnits="userSpaceOnUse" x1="67.9307" y1="121.9282" x2="73.7446" y2="121.9282">
	<stop  offset="0" style="stop-color:#00B8E9"/>
	<stop  offset="0.6771" style="stop-color:#3CEBC4"/>
	<stop  offset="1" style="stop-color:#54FFB5"/>
</linearGradient>
<path fill="url(#SVGID_44_)" stroke="#FFFFFF" stroke-width="1.5372" stroke-miterlimit="10" d="M69.2,116.9
	c-0.6,3.3-0.8,6.6-0.6,10c1.9-2.8,3.4-5.8,4.5-8.9C71.8,117.7,70.5,117.4,69.2,116.9z"/>
<linearGradient id="SVGID_45_" gradientUnits="userSpaceOnUse" x1="68.4321" y1="110.4116" x2="75.991" y2="110.4116">
	<stop  offset="0" style="stop-color:#00B8E9"/>
	<stop  offset="0.6771" style="stop-color:#3CEBC4"/>
	<stop  offset="1" style="stop-color:#54FFB5"/>
</linearGradient>
<path fill="url(#SVGID_45_)" stroke="#FFFFFF" stroke-width="1.5372" stroke-miterlimit="10" d="M75.1,102.8
	c-2.9,4.3-4.9,9.1-5.9,14.1c1.3,0.4,2.6,0.8,4,1.1C74.8,113.2,75.5,108,75.1,102.8z"/>
<linearGradient id="SVGID_46_" gradientUnits="userSpaceOnUse" x1="89.6421" y1="87.2222" x2="94.6633" y2="87.2222">
	<stop  offset="0" style="stop-color:#00B8E9"/>
	<stop  offset="0.6771" style="stop-color:#3CEBC4"/>
	<stop  offset="1" style="stop-color:#54FFB5"/>
</linearGradient>
<path fill="url(#SVGID_46_)" stroke="#FFFFFF" stroke-width="1.5372" stroke-miterlimit="10" d="M91.7,87.1c-0.6,1-1.1,2-1.6,3
	c1.3-0.6,2.6-1.1,4-1.6c-0.3-1.4-0.5-2.8-0.6-4.2C92.9,85.2,92.3,86.2,91.7,87.1z"/>
<linearGradient id="SVGID_47_" gradientUnits="userSpaceOnUse" x1="111.0669" y1="128.8276" x2="146.8515" y2="128.8276">
	<stop  offset="0" style="stop-color:#00B8E9"/>
	<stop  offset="0.6771" style="stop-color:#3CEBC4"/>
	<stop  offset="1" style="stop-color:#54FFB5"/>
</linearGradient>
<path fill="url(#SVGID_47_)" stroke="#FFFFFF" stroke-width="1.5372" stroke-miterlimit="10" d="M142.3,116.4
	c-3.7,1.2-7.6,1.9-11.7,1.9c-5.7,0-11.2-1.3-16-3.6c2.3,4.9,3.6,10.3,3.6,16c0,4.1-0.7,8-1.9,11.7c7.9,1.7,16.1,0.7,23.3-2.7
	C142.9,132.4,143.9,124.3,142.3,116.4z"/>
<linearGradient id="SVGID_48_" gradientUnits="userSpaceOnUse" x1="87.5122" y1="92.7593" x2="98.0839" y2="92.7593">
	<stop  offset="0" style="stop-color:#00B8E9"/>
	<stop  offset="0.6771" style="stop-color:#3CEBC4"/>
	<stop  offset="1" style="stop-color:#54FFB5"/>
</linearGradient>
<path fill="url(#SVGID_48_)" stroke="#FFFFFF" stroke-width="1.5372" stroke-miterlimit="10" d="M88.6,94.1c2.9,0.6,5.8,1.6,8.4,2.8
	c-1.3-2.6-2.2-5.5-2.8-8.4c-1.3,0.4-2.7,1-4,1.6C89.5,91.5,89,92.8,88.6,94.1z"/>
<linearGradient id="SVGID_49_" gradientUnits="userSpaceOnUse" x1="89.5356" y1="125.6968" x2="121.6118" y2="125.6968">
	<stop  offset="0" style="stop-color:#00B8E9"/>
	<stop  offset="0.6771" style="stop-color:#3CEBC4"/>
	<stop  offset="1" style="stop-color:#54FFB5"/>
</linearGradient>
<path fill="url(#SVGID_49_)" stroke="#FFFFFF" stroke-width="1.5372" stroke-miterlimit="10" d="M92.7,116.9c0.6,3.3,0.8,6.6,0.6,10
	c3,4.4,7.1,8.3,12.1,11.1c3.5,2,7.2,3.4,11,4.2c1.2-3.7,1.9-7.6,1.9-11.7c0-5.7-1.3-11.2-3.6-16c-3-1.4-5.9-3.3-8.4-5.5
	C102.4,112.6,97.8,115.3,92.7,116.9z"/>
<linearGradient id="SVGID_50_" gradientUnits="userSpaceOnUse" x1="84.394" y1="105.5347" x2="108.8162" y2="105.5347">
	<stop  offset="0" style="stop-color:#00B8E9"/>
	<stop  offset="0.6771" style="stop-color:#3CEBC4"/>
	<stop  offset="1" style="stop-color:#54FFB5"/>
</linearGradient>
<path fill="url(#SVGID_50_)" stroke="#FFFFFF" stroke-width="1.5372" stroke-miterlimit="10" d="M97,97c-2.6-1.3-5.5-2.2-8.4-2.8
	c-0.9,2.9-1.5,5.8-1.8,8.7c2.9,4.3,4.9,9.1,5.9,14.1c5.1-1.7,9.7-4.3,13.5-7.8C102.4,105.8,99.2,101.6,97,97z"/>
<linearGradient id="SVGID_51_" gradientUnits="userSpaceOnUse" x1="88.1782" y1="121.9282" x2="93.9915" y2="121.9282">
	<stop  offset="0" style="stop-color:#00B8E9"/>
	<stop  offset="0.6771" style="stop-color:#3CEBC4"/>
	<stop  offset="1" style="stop-color:#54FFB5"/>
</linearGradient>
<path fill="url(#SVGID_51_)" stroke="#FFFFFF" stroke-width="1.5372" stroke-miterlimit="10" d="M92.7,116.9c-1.3,0.4-2.6,0.8-4,1.1
	c1.1,3.1,2.6,6.2,4.5,8.9C93.5,123.6,93.3,120.2,92.7,116.9z"/>
<linearGradient id="SVGID_52_" gradientUnits="userSpaceOnUse" x1="85.9438" y1="110.4116" x2="93.5045" y2="110.4116">
	<stop  offset="0" style="stop-color:#00B8E9"/>
	<stop  offset="0.6771" style="stop-color:#3CEBC4"/>
	<stop  offset="1" style="stop-color:#54FFB5"/>
</linearGradient>
<path fill="url(#SVGID_52_)" stroke="#FFFFFF" stroke-width="1.5372" stroke-miterlimit="10" d="M88.8,118c1.3-0.3,2.7-0.6,4-1.1
	c-1-5-3-9.8-5.9-14.1C86.4,108,87.1,113.2,88.8,118z"/>
<linearGradient id="SVGID_53_" gradientUnits="userSpaceOnUse" x1="93.0015" y1="80.9399" x2="96.5479" y2="80.9399">
	<stop  offset="0" style="stop-color:#00B8E9"/>
	<stop  offset="0.6771" style="stop-color:#3CEBC4"/>
	<stop  offset="1" style="stop-color:#54FFB5"/>
</linearGradient>
<path fill="url(#SVGID_53_)" stroke="#FFFFFF" stroke-width="1.5372" stroke-miterlimit="10" d="M93.4,80.9c0,1.1,0.1,2.3,0.2,3.4
	c0.8-1.2,1.7-2.3,2.7-3.4c-0.9-1.1-1.8-2.2-2.7-3.4C93.4,78.7,93.4,79.8,93.4,80.9z"/>
<linearGradient id="SVGID_54_" gradientUnits="userSpaceOnUse" x1="122.6782" y1="98.646" x2="165.6429" y2="98.646">
	<stop  offset="0" style="stop-color:#00B8E9"/>
	<stop  offset="0.6771" style="stop-color:#3CEBC4"/>
	<stop  offset="1" style="stop-color:#54FFB5"/>
</linearGradient>
<path fill="url(#SVGID_54_)" stroke="#FFFFFF" stroke-width="1.5372" stroke-miterlimit="10" d="M142.6,88.4
	c-5,2.9-10.3,4.5-15.7,4.9c4.4,3,8.3,7.1,11.1,12.1c2,3.5,3.4,7.2,4.2,11c7.7-2.5,14.2-7.5,18.8-13.9c-0.7-7.9-3.9-15.5-9.3-21.5
	C149.2,83.8,146.1,86.3,142.6,88.4z"/>
<linearGradient id="SVGID_55_" gradientUnits="userSpaceOnUse" x1="92.3472" y1="84.7476" x2="104.072" y2="84.7476">
	<stop  offset="0" style="stop-color:#00B8E9"/>
	<stop  offset="0.6771" style="stop-color:#3CEBC4"/>
	<stop  offset="1" style="stop-color:#54FFB5"/>
</linearGradient>
<path fill="url(#SVGID_55_)" stroke="#FFFFFF" stroke-width="1.5372" stroke-miterlimit="10" d="M96.2,80.9
	c-0.9,1.1-1.8,2.2-2.7,3.4c0.1,1.4,0.3,2.9,0.6,4.2c2.9-0.9,5.8-1.5,8.7-1.8C100.4,85.1,98.2,83.2,96.2,80.9z"/>
<linearGradient id="SVGID_56_" gradientUnits="userSpaceOnUse" x1="105.0024" y1="105.4565" x2="146.6949" y2="105.4565">
	<stop  offset="0" style="stop-color:#00B8E9"/>
	<stop  offset="0.6771" style="stop-color:#3CEBC4"/>
	<stop  offset="1" style="stop-color:#54FFB5"/>
</linearGradient>
<path fill="url(#SVGID_56_)" stroke="#FFFFFF" stroke-width="1.5372" stroke-miterlimit="10" d="M126.9,93.3
	c-3.4,0.3-6.7,0.1-10-0.6c-1.7,5.1-4.3,9.7-7.8,13.5c2.2,2.5,4,5.3,5.5,8.4c4.9,2.3,10.3,3.6,16,3.6c4.1,0,8-0.7,11.7-1.9
	c-0.8-3.8-2.2-7.5-4.2-11C135.2,100.4,131.4,96.3,126.9,93.3z"/>
<linearGradient id="SVGID_57_" gradientUnits="userSpaceOnUse" x1="91.3003" y1="96.5151" x2="119.9786" y2="96.5151">
	<stop  offset="0" style="stop-color:#00B8E9"/>
	<stop  offset="0.6771" style="stop-color:#3CEBC4"/>
	<stop  offset="1" style="stop-color:#54FFB5"/>
</linearGradient>
<path fill="url(#SVGID_57_)" stroke="#FFFFFF" stroke-width="1.5372" stroke-miterlimit="10" d="M94.1,88.6c0.6,2.9,1.6,5.8,2.8,8.4
	c4.7,2.2,8.8,5.4,12.2,9.3c3.5-3.9,6.2-8.5,7.8-13.5c-5-1-9.8-3-14.1-5.9C99.9,87,97,87.6,94.1,88.6z"/>
<linearGradient id="SVGID_58_" gradientUnits="userSpaceOnUse" x1="105.188" y1="110.4136" x2="115.7167" y2="110.4136">
	<stop  offset="0" style="stop-color:#00B8E9"/>
	<stop  offset="0.6771" style="stop-color:#3CEBC4"/>
	<stop  offset="1" style="stop-color:#54FFB5"/>
</linearGradient>
<path fill="url(#SVGID_58_)" stroke="#FFFFFF" stroke-width="1.5372" stroke-miterlimit="10" d="M106.2,109.1c2.5,2.2,5.3,4,8.4,5.5
	c-1.5-3-3.3-5.9-5.5-8.4C108.2,107.2,107.2,108.2,106.2,109.1z"/>
<linearGradient id="SVGID_59_" gradientUnits="userSpaceOnUse" x1="95.4546" y1="103.0405" x2="110.7393" y2="103.0405">
	<stop  offset="0" style="stop-color:#00B8E9"/>
	<stop  offset="0.6771" style="stop-color:#3CEBC4"/>
	<stop  offset="1" style="stop-color:#54FFB5"/>
</linearGradient>
<path fill="url(#SVGID_59_)" stroke="#FFFFFF" stroke-width="1.5372" stroke-miterlimit="10" d="M97,97c2.2,4.7,5.4,8.8,9.3,12.2
	c1-0.9,2-1.9,2.9-2.9C105.8,102.4,101.6,99.2,97,97z"/>
<linearGradient id="SVGID_60_" gradientUnits="userSpaceOnUse" x1="89.6411" y1="74.6587" x2="94.6636" y2="74.6587">
	<stop  offset="0" style="stop-color:#00B8E9"/>
	<stop  offset="0.6771" style="stop-color:#3CEBC4"/>
	<stop  offset="1" style="stop-color:#54FFB5"/>
</linearGradient>
<path fill="url(#SVGID_60_)" stroke="#FFFFFF" stroke-width="1.5372" stroke-miterlimit="10" d="M91.7,74.7c0.6,1,1.2,1.9,1.8,2.8
	c0.1-1.4,0.3-2.9,0.6-4.2c-1.3-0.4-2.7-1-4-1.6C90.6,72.8,91.1,73.8,91.7,74.7z"/>
<linearGradient id="SVGID_61_" gradientUnits="userSpaceOnUse" x1="122.6782" y1="63.2339" x2="165.6429" y2="63.2339">
	<stop  offset="0" style="stop-color:#00B8E9"/>
	<stop  offset="0.6771" style="stop-color:#3CEBC4"/>
	<stop  offset="1" style="stop-color:#54FFB5"/>
</linearGradient>
<path fill="url(#SVGID_61_)" stroke="#FFFFFF" stroke-width="1.5372" stroke-miterlimit="10" d="M142.3,45.5
	c-0.8,3.8-2.2,7.5-4.2,11c-2.9,5-6.7,9-11.1,12.1c5.4,0.4,10.7,2,15.7,4.9c3.5,2,6.6,4.6,9.2,7.4c5.4-6,8.6-13.6,9.3-21.5
	C156.5,53,149.9,48.1,142.3,45.5z"/>
<linearGradient id="SVGID_62_" gradientUnits="userSpaceOnUse" x1="92.3472" y1="77.1323" x2="104.072" y2="77.1323">
	<stop  offset="0" style="stop-color:#00B8E9"/>
	<stop  offset="0.6771" style="stop-color:#3CEBC4"/>
	<stop  offset="1" style="stop-color:#54FFB5"/>
</linearGradient>
<path fill="url(#SVGID_62_)" stroke="#FFFFFF" stroke-width="1.5372" stroke-miterlimit="10" d="M96.2,80.9c2-2.2,4.2-4.2,6.7-5.9
	c-2.9-0.2-5.8-0.8-8.7-1.8c-0.3,1.4-0.5,2.8-0.6,4.2C94.3,78.8,95.2,79.9,96.2,80.9z"/>
<linearGradient id="SVGID_63_" gradientUnits="userSpaceOnUse" x1="113.8022" y1="80.9399" x2="156.2659" y2="80.9399">
	<stop  offset="0" style="stop-color:#00B8E9"/>
	<stop  offset="0.6771" style="stop-color:#3CEBC4"/>
	<stop  offset="1" style="stop-color:#54FFB5"/>
</linearGradient>
<path fill="url(#SVGID_63_)" stroke="#FFFFFF" stroke-width="1.5372" stroke-miterlimit="10" d="M118.8,80.9c0,2.7-0.3,5.3-0.8,7.8
	c3.1,1.1,6.2,2.6,8.9,4.5c5.4-0.4,10.7-2,15.7-4.9c3.5-2,6.6-4.6,9.2-7.4c-2.6-2.9-5.6-5.4-9.2-7.4c-5-2.9-10.3-4.5-15.7-4.9
	c-2.8,1.9-5.8,3.4-8.9,4.5C118.5,75.6,118.8,78.3,118.8,80.9z"/>
<linearGradient id="SVGID_64_" gradientUnits="userSpaceOnUse" x1="93.3628" y1="80.9399" x2="121.8201" y2="80.9399">
	<stop  offset="0" style="stop-color:#00B8E9"/>
	<stop  offset="0.6771" style="stop-color:#3CEBC4"/>
	<stop  offset="1" style="stop-color:#54FFB5"/>
</linearGradient>
<path fill="url(#SVGID_64_)" stroke="#FFFFFF" stroke-width="1.5372" stroke-miterlimit="10" d="M102.8,75.1
	c-2.4,1.7-4.7,3.6-6.7,5.9c2,2.2,4.2,4.2,6.7,5.9c5.2-0.4,10.3,0.3,15.2,1.9c0.5-2.5,0.8-5.1,0.8-7.8c0-2.7-0.3-5.3-0.8-7.8
	C113.2,74.8,108,75.5,102.8,75.1z"/>
<linearGradient id="SVGID_65_" gradientUnits="userSpaceOnUse" x1="115.6987" y1="91.064" x2="128.2512" y2="91.064">
	<stop  offset="0" style="stop-color:#00B8E9"/>
	<stop  offset="0.6771" style="stop-color:#3CEBC4"/>
	<stop  offset="1" style="stop-color:#54FFB5"/>
</linearGradient>
<path fill="url(#SVGID_65_)" stroke="#FFFFFF" stroke-width="1.5372" stroke-miterlimit="10" d="M116.9,92.7c3.3,0.6,6.6,0.8,10,0.6
	c-2.8-1.9-5.8-3.4-8.9-4.5C117.7,90.1,117.4,91.4,116.9,92.7z"/>
<linearGradient id="SVGID_66_" gradientUnits="userSpaceOnUse" x1="100.9458" y1="89.6948" x2="120.0164" y2="89.6948">
	<stop  offset="0" style="stop-color:#00B8E9"/>
	<stop  offset="0.6771" style="stop-color:#3CEBC4"/>
	<stop  offset="1" style="stop-color:#54FFB5"/>
</linearGradient>
<path fill="url(#SVGID_66_)" stroke="#FFFFFF" stroke-width="1.5372" stroke-miterlimit="10" d="M102.8,86.8
	c4.3,2.9,9.1,4.9,14.1,5.9c0.4-1.3,0.8-2.6,1.1-3.9C113.2,87.1,108,86.4,102.8,86.8z"/>
<linearGradient id="SVGID_67_" gradientUnits="userSpaceOnUse" x1="83.5825" y1="69.7456" x2="90.9148" y2="69.7456">
	<stop  offset="0" style="stop-color:#00B8E9"/>
	<stop  offset="0.6771" style="stop-color:#3CEBC4"/>
	<stop  offset="1" style="stop-color:#54FFB5"/>
</linearGradient>
<path fill="url(#SVGID_67_)" stroke="#FFFFFF" stroke-width="1.5372" stroke-miterlimit="10" d="M87.1,70.2c1,0.6,2,1.1,3,1.6
	c-0.6-1.3-1.1-2.6-1.6-4c-1.4,0.3-2.8,0.5-4.2,0.6C85.2,69,86.2,69.6,87.1,70.2z"/>
<linearGradient id="SVGID_68_" gradientUnits="userSpaceOnUse" x1="76.5435" y1="17.876" x2="121.0726" y2="17.876">
	<stop  offset="0" style="stop-color:#00B8E9"/>
	<stop  offset="0.6771" style="stop-color:#3CEBC4"/>
	<stop  offset="1" style="stop-color:#54FFB5"/>
</linearGradient>
<path fill="url(#SVGID_68_)" stroke="#FFFFFF" stroke-width="1.5372" stroke-miterlimit="10" d="M88.4,19.3c2.9,5,4.5,10.3,4.9,15.7
	c3-4.4,7.1-8.3,12.1-11.1c3.5-2,7.2-3.4,11-4.2c-2.5-7.7-7.5-14.2-13.9-18.8C94.5,1.5,87,4.7,80.9,10.1
	C83.8,12.7,86.3,15.8,88.4,19.3z"/>
<linearGradient id="SVGID_69_" gradientUnits="userSpaceOnUse" x1="79.9941" y1="63.7134" x2="89.5712" y2="63.7134">
	<stop  offset="0" style="stop-color:#00B8E9"/>
	<stop  offset="0.6771" style="stop-color:#3CEBC4"/>
	<stop  offset="1" style="stop-color:#54FFB5"/>
</linearGradient>
<path fill="url(#SVGID_69_)" stroke="#FFFFFF" stroke-width="1.5372" stroke-miterlimit="10" d="M88.6,67.7
	c-0.9-2.9-1.5-5.8-1.8-8.7c-1.7,2.4-3.6,4.7-5.9,6.7c1.1,0.9,2.2,1.8,3.4,2.7C85.7,68.2,87.2,68,88.6,67.7z"/>
<linearGradient id="SVGID_70_" gradientUnits="userSpaceOnUse" x1="65.5605" y1="27.001" x2="96.545" y2="27.001">
	<stop  offset="0" style="stop-color:#00B8E9"/>
	<stop  offset="0.6771" style="stop-color:#3CEBC4"/>
	<stop  offset="1" style="stop-color:#54FFB5"/>
</linearGradient>
<path fill="url(#SVGID_70_)" stroke="#FFFFFF" stroke-width="1.5372" stroke-miterlimit="10" d="M80.9,43.1c2.7,0,5.3,0.3,7.8,0.8
	c1.1-3.1,2.6-6.2,4.5-8.9c-0.4-5.4-2-10.7-4.9-15.7c-2-3.5-4.6-6.6-7.4-9.2c-2.9,2.6-5.4,5.6-7.4,9.2c-2.9,5-4.5,10.3-4.9,15.7
	c1.9,2.8,3.4,5.8,4.5,8.9C75.6,43.4,78.3,43.1,80.9,43.1z"/>
<linearGradient id="SVGID_71_" gradientUnits="userSpaceOnUse" x1="71.1885" y1="54.3926" x2="90.835" y2="54.3926">
	<stop  offset="0" style="stop-color:#00B8E9"/>
	<stop  offset="0.6771" style="stop-color:#3CEBC4"/>
	<stop  offset="1" style="stop-color:#54FFB5"/>
</linearGradient>
<path fill="url(#SVGID_71_)" stroke="#FFFFFF" stroke-width="1.5372" stroke-miterlimit="10" d="M75.1,59.1c1.7,2.4,3.6,4.7,5.9,6.7
	c2.2-2,4.2-4.2,5.9-6.7c-0.4-5.2,0.3-10.3,1.9-15.2c-2.5-0.5-5.1-0.8-7.8-0.8c-2.7,0-5.3,0.3-7.8,0.8C74.8,48.7,75.5,53.9,75.1,59.1
	z"/>
<linearGradient id="SVGID_72_" gradientUnits="userSpaceOnUse" x1="67.9307" y1="39.9512" x2="73.7446" y2="39.9512">
	<stop  offset="0" style="stop-color:#00B8E9"/>
	<stop  offset="0.6771" style="stop-color:#3CEBC4"/>
	<stop  offset="1" style="stop-color:#54FFB5"/>
</linearGradient>
<path fill="url(#SVGID_72_)" stroke="#FFFFFF" stroke-width="1.5372" stroke-miterlimit="10" d="M69.2,44.9c1.3-0.4,2.6-0.8,4-1.1
	c-1.1-3.1-2.6-6.2-4.5-8.9C68.4,38.3,68.5,41.7,69.2,44.9z"/>
<linearGradient id="SVGID_73_" gradientUnits="userSpaceOnUse" x1="68.4321" y1="51.4683" x2="75.991" y2="51.4683">
	<stop  offset="0" style="stop-color:#00B8E9"/>
	<stop  offset="0.6771" style="stop-color:#3CEBC4"/>
	<stop  offset="1" style="stop-color:#54FFB5"/>
</linearGradient>
<path fill="url(#SVGID_73_)" stroke="#FFFFFF" stroke-width="1.5372" stroke-miterlimit="10" d="M73.1,43.9c-1.3,0.3-2.7,0.6-4,1.1
	c1,5,3,9.8,5.9,14.1C75.5,53.9,74.8,48.7,73.1,43.9z"/>
<linearGradient id="SVGID_74_" gradientUnits="userSpaceOnUse" x1="111.0669" y1="33.0513" x2="146.8515" y2="33.0513">
	<stop  offset="0" style="stop-color:#00B8E9"/>
	<stop  offset="0.6771" style="stop-color:#3CEBC4"/>
	<stop  offset="1" style="stop-color:#54FFB5"/>
</linearGradient>
<path fill="url(#SVGID_74_)" stroke="#FFFFFF" stroke-width="1.5372" stroke-miterlimit="10" d="M116.4,19.6
	c1.2,3.7,1.9,7.6,1.9,11.7c0,5.7-1.3,11.2-3.6,16c4.9-2.3,10.3-3.6,16-3.6c4.1,0,8,0.7,11.7,1.9c1.7-7.9,0.7-16.1-2.7-23.3
	C132.4,19,124.3,18,116.4,19.6z"/>
<linearGradient id="SVGID_75_" gradientUnits="userSpaceOnUse" x1="87.5122" y1="69.1206" x2="98.0839" y2="69.1206">
	<stop  offset="0" style="stop-color:#00B8E9"/>
	<stop  offset="0.6771" style="stop-color:#3CEBC4"/>
	<stop  offset="1" style="stop-color:#54FFB5"/>
</linearGradient>
<path fill="url(#SVGID_75_)" stroke="#FFFFFF" stroke-width="1.5372" stroke-miterlimit="10" d="M94.1,73.3c0.6-2.9,1.6-5.8,2.8-8.4
	c-2.6,1.3-5.5,2.2-8.4,2.8c0.4,1.3,1,2.7,1.6,4C91.5,72.4,92.8,72.9,94.1,73.3z"/>
<linearGradient id="SVGID_76_" gradientUnits="userSpaceOnUse" x1="89.5347" y1="36.1831" x2="121.612" y2="36.1831">
	<stop  offset="0" style="stop-color:#00B8E9"/>
	<stop  offset="0.6771" style="stop-color:#3CEBC4"/>
	<stop  offset="1" style="stop-color:#54FFB5"/>
</linearGradient>
<path fill="url(#SVGID_76_)" stroke="#FFFFFF" stroke-width="1.5372" stroke-miterlimit="10" d="M92.7,44.9
	c5.1,1.7,9.7,4.3,13.5,7.8c2.5-2.2,5.3-4,8.4-5.5c2.3-4.9,3.6-10.3,3.6-16c0-4.1-0.7-8-1.9-11.7c-3.8,0.8-7.5,2.2-11,4.2
	c-5,2.9-9,6.7-12.1,11.1C93.5,38.3,93.3,41.7,92.7,44.9z"/>
<linearGradient id="SVGID_77_" gradientUnits="userSpaceOnUse" x1="84.394" y1="56.3452" x2="108.8162" y2="56.3452">
	<stop  offset="0" style="stop-color:#00B8E9"/>
	<stop  offset="0.6771" style="stop-color:#3CEBC4"/>
	<stop  offset="1" style="stop-color:#54FFB5"/>
</linearGradient>
<path fill="url(#SVGID_77_)" stroke="#FFFFFF" stroke-width="1.5372" stroke-miterlimit="10" d="M88.6,67.7c2.9-0.6,5.8-1.6,8.4-2.8
	c2.2-4.7,5.4-8.8,9.3-12.2c-3.9-3.5-8.5-6.2-13.5-7.8c-1,5-3,9.8-5.9,14.1C87,62,87.6,64.9,88.6,67.7z"/>
<linearGradient id="SVGID_78_" gradientUnits="userSpaceOnUse" x1="88.1782" y1="39.9512" x2="93.9915" y2="39.9512">
	<stop  offset="0" style="stop-color:#00B8E9"/>
	<stop  offset="0.6771" style="stop-color:#3CEBC4"/>
	<stop  offset="1" style="stop-color:#54FFB5"/>
</linearGradient>
<path fill="url(#SVGID_78_)" stroke="#FFFFFF" stroke-width="1.5372" stroke-miterlimit="10" d="M92.7,44.9c0.6-3.3,0.8-6.6,0.6-10
	c-1.9,2.8-3.4,5.8-4.5,8.9C90.1,44.2,91.4,44.5,92.7,44.9z"/>
<linearGradient id="SVGID_79_" gradientUnits="userSpaceOnUse" x1="85.9438" y1="51.4683" x2="93.5033" y2="51.4683">
	<stop  offset="0" style="stop-color:#00B8E9"/>
	<stop  offset="0.6771" style="stop-color:#3CEBC4"/>
	<stop  offset="1" style="stop-color:#54FFB5"/>
</linearGradient>
<path fill="url(#SVGID_79_)" stroke="#FFFFFF" stroke-width="1.5372" stroke-miterlimit="10" d="M86.8,59.1
	c2.9-4.3,4.9-9.1,5.9-14.1c-1.3-0.4-2.6-0.8-3.9-1.1C87.1,48.7,86.4,53.9,86.8,59.1z"/>
<linearGradient id="SVGID_80_" gradientUnits="userSpaceOnUse" x1="105.0024" y1="56.4233" x2="146.6949" y2="56.4233">
	<stop  offset="0" style="stop-color:#00B8E9"/>
	<stop  offset="0.6771" style="stop-color:#3CEBC4"/>
	<stop  offset="1" style="stop-color:#54FFB5"/>
</linearGradient>
<path fill="url(#SVGID_80_)" stroke="#FFFFFF" stroke-width="1.5372" stroke-miterlimit="10" d="M116.9,69.2c3.3-0.6,6.6-0.8,10-0.6
	c4.4-3,8.3-7.1,11.1-12.1c2-3.5,3.4-7.2,4.2-11c-3.7-1.2-7.6-1.9-11.7-1.9c-5.7,0-11.2,1.3-16,3.6c-1.5,3-3.3,5.9-5.5,8.4
	C112.6,59.5,115.3,64.1,116.9,69.2z"/>
<linearGradient id="SVGID_81_" gradientUnits="userSpaceOnUse" x1="91.3003" y1="65.3638" x2="119.9786" y2="65.3638">
	<stop  offset="0" style="stop-color:#00B8E9"/>
	<stop  offset="0.6771" style="stop-color:#3CEBC4"/>
	<stop  offset="1" style="stop-color:#54FFB5"/>
</linearGradient>
<path fill="url(#SVGID_81_)" stroke="#FFFFFF" stroke-width="1.5372" stroke-miterlimit="10" d="M97,64.9c-1.3,2.6-2.2,5.5-2.8,8.4
	c2.9,0.9,5.8,1.5,8.7,1.8c4.3-2.9,9.1-4.9,14.1-5.9c-1.7-5.1-4.3-9.7-7.8-13.5C105.8,59.5,101.6,62.7,97,64.9z"/>
<linearGradient id="SVGID_82_" gradientUnits="userSpaceOnUse" x1="105.188" y1="51.4663" x2="115.7167" y2="51.4663">
	<stop  offset="0" style="stop-color:#00B8E9"/>
	<stop  offset="0.6771" style="stop-color:#3CEBC4"/>
	<stop  offset="1" style="stop-color:#54FFB5"/>
</linearGradient>
<path fill="url(#SVGID_82_)" stroke="#FFFFFF" stroke-width="1.5372" stroke-miterlimit="10" d="M109.1,55.7c2.2-2.5,4-5.3,5.5-8.4
	c-3,1.5-5.9,3.3-8.4,5.5C107.2,53.7,108.2,54.6,109.1,55.7z"/>
<linearGradient id="SVGID_83_" gradientUnits="userSpaceOnUse" x1="95.4546" y1="58.8384" x2="110.7393" y2="58.8384">
	<stop  offset="0" style="stop-color:#00B8E9"/>
	<stop  offset="0.6771" style="stop-color:#3CEBC4"/>
	<stop  offset="1" style="stop-color:#54FFB5"/>
</linearGradient>
<path fill="url(#SVGID_83_)" stroke="#FFFFFF" stroke-width="1.5372" stroke-miterlimit="10" d="M97,64.9c4.7-2.2,8.8-5.4,12.2-9.3
	c-0.9-1-1.9-2-2.9-2.9C102.4,56.1,99.2,60.2,97,64.9z"/>
<linearGradient id="SVGID_84_" gradientUnits="userSpaceOnUse" x1="115.6987" y1="70.8159" x2="128.2512" y2="70.8159">
	<stop  offset="0" style="stop-color:#00B8E9"/>
	<stop  offset="0.6771" style="stop-color:#3CEBC4"/>
	<stop  offset="1" style="stop-color:#54FFB5"/>
</linearGradient>
<path fill="url(#SVGID_84_)" stroke="#FFFFFF" stroke-width="1.5372" stroke-miterlimit="10" d="M116.9,69.2c0.4,1.3,0.8,2.6,1.1,4
	c3.1-1.1,6.2-2.6,8.9-4.5C123.6,68.4,120.2,68.5,116.9,69.2z"/>
<linearGradient id="SVGID_85_" gradientUnits="userSpaceOnUse" x1="100.9458" y1="72.1836" x2="120.0164" y2="72.1836">
	<stop  offset="0" style="stop-color:#00B8E9"/>
	<stop  offset="0.6771" style="stop-color:#3CEBC4"/>
	<stop  offset="1" style="stop-color:#54FFB5"/>
</linearGradient>
<path fill="url(#SVGID_85_)" stroke="#FFFFFF" stroke-width="1.5372" stroke-miterlimit="10" d="M118,73.1c-0.3-1.3-0.6-2.7-1.1-4
	c-5,1-9.8,3-14.1,5.9C108,75.5,113.2,74.8,118,73.1z"/>
</svg>
