<?xml version="1.0" encoding="utf-8"?>
<!-- Generator: Adobe Illustrator 16.0.0, SVG Export Plug-In . SVG Version: 6.00 Build 0)  -->
<!DOCTYPE svg PUBLIC "-//W3C//DTD SVG 1.1//EN" "http://www.w3.org/Graphics/SVG/1.1/DTD/svg11.dtd">
<svg version="1.1" id="Layer_1" xmlns="http://www.w3.org/2000/svg" xmlns:xlink="http://www.w3.org/1999/xlink" x="0px" y="0px"
	 width="204px" height="161.1px" viewBox="0 0 204 161.1" enable-background="new 0 0 204 161.1" xml:space="preserve">
<g>
	<path d="M53.6,68.5c0.2,0,1.8-0.1,5-0.2c3.1-0.1,5.3-0.2,6.7-0.2l12.3,0.3l-0.1-2.5c-4.7,0-7.6-0.5-8.7-1.5c-1.1-1-1.7-3.3-1.7-6.9
		v-4.2l-0.3-17.2V6.2c0-0.5,0.1-1,0.3-1.7l0.6-0.4c1.2,0.5,3.9,5.6,8.3,15.5c3.2,7.3,7.2,16.9,11.9,28.8c3.7,9.3,6.2,15.9,7.4,19.6
		h2.6c2.8-7.6,5-13.7,6.7-18.1c2.3-6,4.7-11.9,7-17.9c1.3-3.6,2.6-7.1,3.9-10.7c3.1-8.3,5.8-14.1,8.3-17.3h0.4l0.8,0.5l0.4,0.6
		c0.2,1,0.3,1.9,0.3,2.7c0,0.7,0,1.4,0,2v1.6V59c0,2.6-0.7,4.4-2,5.4c-1.3,1-3.3,1.5-6,1.5h-1.7l-0.1,2.9c0.5,0,2.1-0.1,5.1-0.3
		c2.9-0.2,5.3-0.3,7.2-0.3c0.6,0,4,0.2,10.2,0.5c1.6,0.1,3.6,0.1,6.1,0.1l-0.1-2.9c-4.1,0-6.6-0.3-7.5-0.9c-1.4-0.9-2-3.2-2-7V10.2
		c0-3.3,0.5-5.4,1.5-6.2c1-0.9,3.2-1.3,6.6-1.3h1.3V0c-0.3,0-1.9,0.1-4.9,0.2c-3,0.2-5.2,0.2-6.5,0.2h-12.3
		c-1.1,2.8-3.5,8.8-7.2,17.9c-4.1,10.2-6.5,16.1-7.2,17.8c-2.3,5.9-4.4,11.9-6.4,18c-0.6-1.4-3-7.5-7.4-18.1C89.9,30,87.4,24,85,18
		C80.6,7.5,78.1,1.5,77.5,0L64.4,0.5H54.1L54,2.7c3.6,0,6,0.3,7,0.9c1.6,0.9,2.3,3,2.3,6.4v34.1c-0.1,2.4-0.1,4.8-0.2,7.1
		c-0.1,2.3-0.1,4.7-0.1,7c0,3.6-0.7,5.9-2,6.8c-1,0.6-3.4,1-7.4,1V68.5z"/>
	<path d="M91.4,71.1h2.7c4.1,0,7,0.7,8.9,2.1s2.8,3.7,2.8,6.9c0,2.6-0.6,5.7-1.7,9.2c-1.2,3.5-2.5,6.2-4,8.2c-1.5,2-3.1,3.2-4.8,3.9
		c-1.7,0.7-4.3,1-7.8,1h-5L91.4,71.1z M99.6,42.8h2.4c3.3,0,5.7,0.5,7,1.5c1.4,1,2.1,2.6,2.1,4.9c0,1.9-0.4,4.2-1.3,7
		c-0.8,2.8-1.8,5.1-3,7.1c-1.1,2-2.4,3.3-3.9,4c-1.5,0.7-3.8,1.1-6.8,1.1h-4L99.6,42.8z M72.5,42.8h8.5l-17.1,59.6h-7.8l-0.8,2.6
		h39.3c8.7,0,14.9-1,18.5-2.9c3.6-1.9,6.3-4.3,8.2-7.3c1.9-2.9,2.8-6.1,2.8-9.6c0-8.7-5.5-13.8-16.5-15.2c5.1-0.5,9.1-1.6,12-3.1
		c2.9-1.6,5.2-3.7,6.9-6.4c1.7-2.7,2.6-5.4,2.6-8.3c0-4.9-1.7-8.1-5-9.4c-3.3-1.4-6-2.2-8.2-2.4c-2.2-0.2-6.6-0.3-13.2-0.3H73.3
		L72.5,42.8z"/>
	<path d="M204,131v-4.7h-20.3v4.7h7.7v28.6h5V131H204z M180.6,126.3h-18.4v33.3h18.4v-4.7h-13.4v-11.1h13V139h-13v-8h13.4V126.3z
		 M141.1,144.8h2.5c2.7,0,4.6,0.5,5.6,1.4c1.1,1,1.6,2.2,1.6,3.6c0,1.5-0.6,2.7-1.7,3.7c-1.1,0.9-2.7,1.3-5,1.3h-3.1V144.8z
		 M141.1,130.9h1.8c1.7,0,3,0.4,3.9,1.2s1.3,2,1.3,3.6c0,1.6-0.4,2.8-1.3,3.7c-0.9,0.8-2.2,1.2-4.1,1.2h-1.6V130.9z M143.7,159.6
		c2.3,0,4.2-0.2,5.7-0.6c1.4-0.4,2.6-1.2,3.7-2.3c1.8-1.8,2.8-4,2.8-6.6c0-2-0.5-3.7-1.6-5.2c-1-1.5-2.4-2.6-4.2-3.2
		c1.8-1.7,2.7-3.7,2.7-6.1c0-1.3-0.3-2.6-0.8-3.9c-0.5-1.3-1.3-2.3-2.2-3.2c-0.9-0.8-2-1.4-3.4-1.7c-1.3-0.3-3.1-0.5-5.3-0.5h-5
		v33.3H143.7z M129.5,126.3h-18.4v33.3h18.4v-4.7h-13.4v-11.1h13V139h-13v-8h13.4V126.3z M72.7,159.6l3.6-20.1l9.6,21.7l9.9-21.6
		l3.2,20.1h5.2l-6.3-35.8l-11.8,25.9l-11.4-25.9l-7,35.8H72.7z M62,126.3H43.6v33.3H62v-4.7H48.7v-11.1h13V139h-13v-8H62V126.3z
		 M5.2,159.6l3.6-20.1l9.6,21.7l9.9-21.6l3.2,20.1h5.2l-6.3-35.8l-11.8,25.9L7,123.8l-7,35.8H5.2z"/>
</g>
</svg>
