<?xml version="1.0" encoding="utf-8"?>
<!-- Generator: Adobe Illustrator 16.0.0, SVG Export Plug-In . SVG Version: 6.00 Build 0)  -->
<!DOCTYPE svg PUBLIC "-//W3C//DTD SVG 1.1//EN" "http://www.w3.org/Graphics/SVG/1.1/DTD/svg11.dtd">
<svg version="1.1" id="Layer_1" xmlns="http://www.w3.org/2000/svg" xmlns:xlink="http://www.w3.org/1999/xlink" x="0px" y="0px"
	 width="204.05px" height="37.35px" viewBox="0 0 204.05 37.35" enable-background="new 0 0 204.05 37.35" xml:space="preserve">
<path d="M204.05,7.23V2.5h-20.33v4.72h7.66v28.59h5.03V7.23H204.05z M180.62,2.5h-18.38v33.31h18.38v-4.73h-13.36V19.96h12.97v-4.73
	h-12.97v-8h13.36V2.5z M141.13,21.02h2.55c2.7,0,4.58,0.48,5.63,1.45c1.08,0.98,1.62,2.19,1.62,3.62c0,1.48-0.56,2.71-1.68,3.67
	c-1.06,0.89-2.73,1.34-5.01,1.34h-3.11V21.02z M141.13,7.12h1.77c1.7,0,2.99,0.41,3.88,1.22s1.34,2,1.34,3.57
	c0,1.61-0.44,2.83-1.31,3.66c-0.87,0.83-2.24,1.24-4.11,1.24h-1.58V7.12z M143.72,35.82c2.27,0,4.16-0.21,5.67-0.63
	c1.38-0.43,2.62-1.2,3.73-2.31c1.84-1.8,2.76-4,2.76-6.6c0-1.99-0.52-3.73-1.55-5.22c-1.02-1.51-2.42-2.57-4.19-3.17
	c1.83-1.65,2.74-3.67,2.74-6.06c0-1.31-0.28-2.6-0.84-3.88c-0.55-1.27-1.29-2.32-2.22-3.17c-0.92-0.82-2.05-1.4-3.39-1.75
	c-1.32-0.35-3.1-0.52-5.33-0.52h-5.01v33.31H143.72z M129.5,2.5h-18.38v33.31h18.38v-4.73h-13.36V19.96h12.97v-4.73h-12.97v-8h13.36
	V2.5z M72.67,35.82l3.58-20.13l9.58,21.66l9.86-21.64l3.21,20.11h5.16L97.76,0L85.92,25.89L74.48,0l-7.01,35.82H72.67z M62.03,2.5
	H43.65v33.31h18.38v-4.73H48.68V19.96h12.97v-4.73H48.68v-8h13.36V2.5z M5.2,35.82l3.58-20.13l9.58,21.66l9.86-21.64l3.21,20.11
	h5.16L30.29,0L18.45,25.89L7.01,0L0,35.82H5.2z"/>
</svg>
